<?xml version="1.0" encoding="utf-8"?>
<svg width="545" height="573" xmlns="http://www.w3.org/2000/svg">
  <path id="svg_1" fill="#EBF4FF" d="m40,72c0,-16.5686 13.4315,-30 30,-30l475,0l0,531l-505,0l0,-501z"/>
  <path id="svg_2" stroke-width="3" style="fill:none;fill-opacity:1;fill-rule:nonzero;stroke:#EBF4FF" d="m1.5,30c0,-15.7401 12.7599,-28.5 28.5,-28.5l513.5,0l0,570l-542,0l0,-541.5z"/>
  <g transform="matrix(1.333333, 0, 0, -1.333333, 100, 887.013306)" id="g10">
  
    <g transform="scale(0.1)" id="g12">
    
      <path id="path20" style="fill:#2aad94;fill-opacity:1;fill-rule:nonzero;stroke:none" d="M 1808.86,2534.04 H 3040.5 v 1064.3 H 1808.86 Z"/>
      <path id="path22" style="fill:#72c6dd;fill-opacity:1;fill-rule:nonzero;stroke:none" d="M 3140.31,3556.5 H 1410.92 v 462.25 h 1231.4 l 497.99,-462.25"/>
      <path id="path24" style="fill:#2f3f60;fill-opacity:1;fill-rule:nonzero;stroke:none" d="M 3127.42,3576.03 H 1378.37 v -19.53 h 113.93 v -25.09 h 1627.4 v 25.09 h 20.61 v 6.64 c 0,7.13 -5.76,12.89 -12.89,12.89"/>
      <path id="path26" style="fill:#32ceb0;fill-opacity:1;fill-rule:nonzero;stroke:none" d="M 3040.51,3064.5 V 2529.25 H 1941.46 v 535.25 l 0.03,0.03 555.7,518.49 543.32,-518.52"/>
      <path id="path28" style="fill:#357d67;fill-opacity:1;fill-rule:nonzero;stroke:none" d="m 3025.86,3057.29 h -13.56 l -439.73,384.28 -397.84,-368.97 -195.64,24.72 -0.07,0.26 -0.33,1.19 518.9,481.21 528.27,-512.46 v -10.23"/>
      <path id="path30" style="fill:#2f3f60;fill-opacity:1;fill-rule:nonzero;stroke:none" d="m 3084.31,3057.29 h -58.45 v 10.23 l -528.27,512.46 -572.84,-531.23 -29.21,35.95 602.93,535.23 585.84,-562.64"/>
      <path id="path32" style="fill:#43c4ab;fill-opacity:1;fill-rule:nonzero;stroke:none" d="M 1941.46,2534.04 H 639.531 v 998.05 l 643.879,591.95 657.84,-593.03 0.21,-996.97"/>
      <path id="path34" style="fill:#125b4d;fill-opacity:1;fill-rule:nonzero;stroke:none" d="m 1933.36,3584.22 1.78,-1050.57 -1299.722,-2.2 1306.042,-2.2 -0.14,1047.68 -7.96,7.29"/>
      <path id="path36" style="fill:#417a66;fill-opacity:1;fill-rule:nonzero;stroke:none" d="M 766.059,3439.33 H 639.531 v 69.16 l 116.895,5.7 9.633,-5.7 v -69.16"/>
      <path id="path38" style="fill:#7cedd8;fill-opacity:1;fill-rule:nonzero;stroke:none" d="M 756.703,3445.03 H 633.832 v 69.16 h 122.871 v -69.16"/>
      <path id="path40" style="fill:#417a66;fill-opacity:1;fill-rule:nonzero;stroke:none" d="M 766.059,3362.71 H 639.57 v 5.69 h 117.133 v 69 l 9.356,-5.53 v -69.16"/>
      <path id="path42" style="fill:#7cedd8;fill-opacity:1;fill-rule:nonzero;stroke:none" d="m 633.832,3368.4 h 122.871 v 69.1719 H 633.832 Z"/>
      <path id="path44" style="fill:#417a66;fill-opacity:1;fill-rule:nonzero;stroke:none" d="M 766.059,3280.39 H 639.531 v 69.16 l 117.172,11.39 9.356,-11.39 v -69.16"/>
      <path id="path46" style="fill:#7cedd8;fill-opacity:1;fill-rule:nonzero;stroke:none" d="M 756.703,3291.78 H 633.832 v 69.16 h 122.871 v -69.16"/>
      <path id="path48" style="fill:#417a66;fill-opacity:1;fill-rule:nonzero;stroke:none" d="m 1933.62,3433.01 h -115.25 v 69.16 l 9.36,5.7 v -69.17 h 105.88 l 0.01,-5.69"/>
      <path id="path50" style="fill:#264132;fill-opacity:1;fill-rule:nonzero;stroke:none" d="m 1941.24,3433.01 h -7.62 l -0.01,5.69 h 7.63 v -5.69"/>
      <path id="path52" style="fill:#7cedd8;fill-opacity:1;fill-rule:nonzero;stroke:none" d="m 1827.73,3438.7 h 122.871 v 69.1719 H 1827.73 Z"/>
      <path id="path54" style="fill:#417a66;fill-opacity:1;fill-rule:nonzero;stroke:none" d="m 1933.75,3356.38 h -115.38 v 69.17 l 9.36,5.69 105.9,-5.31 0.12,-69.55"/>
      <path id="path56" style="fill:#264132;fill-opacity:1;fill-rule:nonzero;stroke:none" d="m 1941.24,3356.38 h -7.49 l -0.12,69.55 7.61,-0.38 v -69.17"/>
      <path id="path58" style="fill:#7cedd8;fill-opacity:1;fill-rule:nonzero;stroke:none" d="m 1827.73,3362.08 h 122.87 v 69.16 h -122.87 v -69.16"/>
      <path id="path60" style="fill:#417a66;fill-opacity:1;fill-rule:nonzero;stroke:none" d="m 1933.88,3279.76 h -115.51 v 69.16 l 9.36,5.7 106.03,-5.32 0.12,-69.54"/>
      <path id="path62" style="fill:#264132;fill-opacity:1;fill-rule:nonzero;stroke:none" d="m 1941.24,3279.76 h -7.36 l -0.12,69.54 7.48,-0.38 v -69.16"/>
      <path id="path64" style="fill:#7cedd8;fill-opacity:1;fill-rule:nonzero;stroke:none" d="m 1827.73,3285.46 h 122.87 v 69.16 h -122.87 v -69.16"/>
      <path id="path66" style="fill:#72c6dd;fill-opacity:1;fill-rule:nonzero;stroke:none" d="M 1985.95,3072.6 H 556.531 l 12.891,24.98 70.109,135.62 H 1941.46 l 37.56,-135.62 6.93,-24.98"/>
      <path id="path68" style="fill:#6d96a6;fill-opacity:1;fill-rule:nonzero;stroke:none" d="m 1985.95,3072.6 h -423.44 l 0.01,0.03 -35.14,24.95 h 451.64 l 6.93,-24.98"/>
      <path id="path70" style="fill:#6d96a6;fill-opacity:1;fill-rule:nonzero;stroke:none" d="m 1511.94,3072.6 h -485.25 l 37.53,24.98 h 412.56 l 35.16,-24.98"/>
      <path id="path72" style="fill:#6d96a6;fill-opacity:1;fill-rule:nonzero;stroke:none" d="M 974.398,3072.6 H 556.531 l 12.891,24.98 h 441.918 l -37.121,-24.7 0.179,-0.28"/>
      <path id="path74" style="fill:#72c6dd;fill-opacity:1;fill-rule:nonzero;stroke:none" d="M 1277.48,3257.06 1001.9,3073.71 h 533.79 z"/>
      <path id="path76" style="fill:#2f3f60;fill-opacity:1;fill-rule:nonzero;stroke:none" d="m 990.445,3048.49 -16.226,24.39 303.531,201.95 284.77,-202.2 -16.96,-23.89 -268.36,190.55 -286.755,-190.8"/>
      <path id="path78" style="fill:#2f3f60;fill-opacity:1;fill-rule:nonzero;stroke:none" d="m 551.652,3048.75 h 1434.3 v 23.8516 h -1434.3 z"/>
      <path id="path80" style="fill:#2f3f60;fill-opacity:1;fill-rule:nonzero;stroke:none" d="m 569.008,3575.5 -0.004,-61.31 70.566,11.33 643.84,598.52 656.5,-590.58 69.89,-19.27 0.01,55.38 -723.65,659.6 -717.152,-653.67"/>
      <path id="path82" style="fill:#1ca086;fill-opacity:1;fill-rule:nonzero;stroke:none" d="m 1286.16,4177.09 -717.152,-662.9 70.562,8.81 643.84,601.04 657.84,-593.03 68.56,-16.82 -723.65,662.9"/>
      <path id="path84" style="fill:#b2a9a6;fill-opacity:1;fill-rule:nonzero;stroke:none" d="m 1096.83,3315.65 v 481.71 h 354.78 v -481.71 h -354.78"/>
      <path id="path86" style="fill:#fff1f0;fill-opacity:1;fill-rule:nonzero;stroke:none" d="m 727.172,2652.17 h 188.781 v 360.469 H 727.172 Z"/>
      <path id="path88" style="fill:#5abce2;fill-opacity:1;fill-rule:nonzero;stroke:none" d="M 751.809,2670.89 H 885.84 v 319.781 H 751.809 Z"/>
      <path id="path90" style="fill:#ffffff;fill-opacity:1;fill-rule:nonzero;stroke:none" d="m 884.063,2926.66 h -59.25 v 62.38 h 59.25 v -62.38 m 0,-67.06 h -59.25 v 63.81 h 59.25 v -63.81 m 0,-62.59 h -59.25 v 59.34 h 59.25 v -59.34 m 0,-124.5 h -59.25 v 121.25 h 59.25 v -121.25 m -62.954,254.15 h -67.445 v 62.38 h 67.445 v -62.38 m 0,-67.06 h -67.445 v 63.81 h 67.445 v -63.81 m 0,-62.59 h -67.445 v 59.34 h 67.445 v -59.34 m 0,-124.5 h -67.445 v 121.25 h 67.445 v -121.25 m 3.704,319.78 h -3.25 -71.606 v -323.04 h 71.606 3.25 62.5 v 323.04 h -62.5"/>
      <path id="path92" style="fill:#fff1f0;fill-opacity:1;fill-rule:nonzero;stroke:none" d="m 1702.93,2652.17 h 188.77 v 360.469 h -188.77 z"/>
      <path id="path94" style="fill:#5abce2;fill-opacity:1;fill-rule:nonzero;stroke:none" d="m 1727.56,2670.89 h 134.031 v 319.781 H 1727.56 Z"/>
      <path id="path96" style="fill:#ffffff;fill-opacity:1;fill-rule:nonzero;stroke:none" d="m 1859.81,2926.66 h -59.24 v 62.38 h 59.24 v -62.38 m 0,-67.06 h -59.24 v 63.81 h 59.24 v -63.81 m 0,-62.59 h -59.24 v 59.34 h 59.24 v -59.34 m 0,-124.5 h -59.24 v 121.25 h 59.24 v -121.25 m -62.94,254.15 h -67.46 v 62.38 h 67.46 v -62.38 m 0,-67.06 h -67.46 v 63.81 h 67.46 v -63.81 m 0,-62.59 h -67.46 v 59.34 h 67.46 v -59.34 m 0,-124.5 h -67.46 v 121.25 h 67.46 v -121.25 m 3.7,319.78 h -3.26 -71.6 v -323.04 h 71.6 3.26 62.5 v 323.04 h -62.5"/>
      <path id="path98" style="fill:#5abce2;fill-opacity:1;fill-rule:nonzero;stroke:none" d="m 1096.83,3315.65 v 481.71 h 354.78 v -481.71 h -354.78"/>
      <path id="path100" style="fill:#2f3f60;fill-opacity:1;fill-rule:nonzero;stroke:none" d="m 1145.65,3762.1 h 305.96 v 35.26 h -354.78 v -481.71 h 48.82 v 446.45"/>
      <path id="path102" style="fill:#fff1f0;fill-opacity:1;fill-rule:nonzero;stroke:none" d="m 1267.71,3327.04 v 66.59 h 172.5 v -66.59 z m -159.49,9.9 v 56.69 h 146.47 v -66.59 h -146.47 z m 0,170.74 h 146.47 v -101.03 h -146.47 z m 0,128.57 h 146.47 V 3520.7 h -146.47 z m 0,149.72 h 146.47 v -136.7 h -146.47 v 126.93 z m 331.99,-136.7 h -172.5 v 136.7 h 172.5 z m -172.5,-128.57 v 115.55 h 172.5 V 3520.7 Z m 172.5,-114.05 h -172.5 v 101.03 h 172.5 z m 52.08,369.55 v 32.55 H 1059.4 v -32.55 h 26.04 v -439.26 h -26.04 v -32.68 h 26.04 22.78 335.25 19.53 29.29 v 32.68 H 1463 v 439.26 h 29.29"/>
      <path id="path104" style="fill:#316f59;fill-opacity:1;fill-rule:nonzero;stroke:none" d="m 1941.46,2831.77 h -0.04 l -0.03,216.98 h 0.07 v -216.98"/>
      <path id="path106" style="fill:#3f7d67;fill-opacity:1;fill-rule:nonzero;stroke:none" d="m 1934.64,2831.77 h -42.94 v 180.87 H 1702.93 V 2831.77 H 971.145 l -55.192,32.81 v 148.06 H 727.172 v -35.81 l -87.641,52.11 v 19.81 H 990.27 l 0.175,-0.26 0.391,0.26 h 554.714 l 0.01,-0.01 v 0.01 h 388.71 l 0.37,-216.98"/>
      <path id="path108" style="fill:#234030;fill-opacity:1;fill-rule:nonzero;stroke:none" d="m 1941.42,2831.77 h -6.78 l -0.37,216.98 h 7.12 l 0.03,-216.98"/>
      <path id="path110" style="fill:#342f3b;fill-opacity:1;fill-rule:nonzero;stroke:none" d="m 990.445,3048.49 -0.175,0.26 h 0.566 l -0.391,-0.26 m 555.115,0.25 -0.01,0.01 h 0.01 v -0.01"/>
      <path id="path112" style="fill:#ac978f;fill-opacity:1;fill-rule:nonzero;stroke:none" d="m 915.953,2864.58 -28.64,17.03 v 110.68 H 749.957 v -29.01 l -22.785,13.55 v 35.81 h 188.781 v -148.06"/>
      <path id="path114" style="fill:#4d7887;fill-opacity:1;fill-rule:nonzero;stroke:none" d="m 884.063,2883.54 -59.25,35.23 v 4.64 h 59.25 v -39.87 m -62.954,37.44 -4.086,2.43 h 4.086 v -2.43 m 62.954,5.68 h -59.25 v 62.38 h 59.25 v -62.38 m -62.954,0 h -9.55 l -57.895,34.42 v 27.96 h 67.445 v -62.38"/>
      <path id="path116" style="fill:#ac9f97;fill-opacity:1;fill-rule:nonzero;stroke:none" d="m 887.313,2881.61 -3.25,1.93 v 39.87 h -59.25 v -4.64 l -3.704,2.21 v 2.43 h -4.086 l -5.464,3.25 h 9.55 v 62.38 h -67.445 v -27.96 l -3.707,2.2 v 29.01 h 71.606 3.25 62.5 v -110.68 m -62.5,107.43 v -62.38 h 59.25 v 62.38 h -59.25"/>
      <path id="path118" style="fill:#ac978f;fill-opacity:1;fill-rule:nonzero;stroke:none" d="m 1891.7,2831.77 h -28.63 v 160.52 h -137.36 v -160.52 h -22.78 v 180.87 h 188.77 v -180.87"/>
      <path id="path120" style="fill:#4d7887;fill-opacity:1;fill-rule:nonzero;stroke:none" d="m 1859.81,2831.77 h -59.24 v 24.58 h 59.24 v -24.58 m -62.94,0 h -67.46 v 24.58 h 67.46 v -24.58 m 62.94,27.83 h -59.24 v 63.81 h 59.24 v -63.81 m -62.94,0 h -67.46 v 63.81 h 67.46 v -63.81 m 62.94,67.06 h -59.24 v 62.38 h 59.24 v -62.38 m -62.94,0 h -67.46 v 62.38 h 67.46 v -62.38"/>
      <path id="path122" style="fill:#ac9f97;fill-opacity:1;fill-rule:nonzero;stroke:none" d="m 1863.07,2831.77 h -3.26 v 24.58 h -59.24 v -24.58 h -3.7 v 24.58 h -67.46 v -24.58 h -3.7 v 160.52 h 71.6 3.26 62.5 v -160.52 m -62.5,91.64 v -63.81 h 59.24 v 63.81 h -59.24 m -71.16,0 v -63.81 h 67.46 v 63.81 h -67.46 m 71.16,65.63 v -62.38 h 59.24 v 62.38 h -59.24 m -71.16,0 v -62.38 h 67.46 v 62.38 h -67.46"/>
      <path id="path124" style="fill:#3a1a08;fill-opacity:1;fill-rule:nonzero;stroke:none" d="M 1104.97,2534.04 H 633.832 v 210.38 h 471.138 v -210.38"/>
      <path id="path126" style="fill:#3a1a08;fill-opacity:1;fill-rule:nonzero;stroke:none" d="m 1941.24,2534.04 h -470.92 v 210.38 h 470.92 v -210.38"/>
      <path id="path128" style="fill:#dcfff8;fill-opacity:1;fill-rule:nonzero;stroke:none" d="m 680.762,2570.84 h -37.571 v 158.94 h 37.571 v -158.94"/>
      <path id="path130" style="fill:#dcfff8;fill-opacity:1;fill-rule:nonzero;stroke:none" d="m 736.695,2570.84 h -37.57 v 158.94 h 37.57 v -158.94"/>
      <path id="path132" style="fill:#dcfff8;fill-opacity:1;fill-rule:nonzero;stroke:none" d="m 792.629,2570.84 h -37.57 v 158.94 h 37.57 v -158.94"/>
      <path id="path134" style="fill:#dcfff8;fill-opacity:1;fill-rule:nonzero;stroke:none" d="m 848.559,2570.84 h -37.567 v 158.94 h 37.567 v -158.94"/>
      <path id="path136" style="fill:#dcfff8;fill-opacity:1;fill-rule:nonzero;stroke:none" d="m 904.492,2570.84 h -37.566 v 158.94 h 37.566 v -158.94"/>
      <path id="path138" style="fill:#dcfff8;fill-opacity:1;fill-rule:nonzero;stroke:none" d="m 960.426,2570.84 h -37.571 v 158.94 h 37.571 v -158.94"/>
      <path id="path140" style="fill:#dcfff8;fill-opacity:1;fill-rule:nonzero;stroke:none" d="m 1016.36,2570.84 h -37.571 v 158.94 h 37.571 v -158.94"/>
      <path id="path142" style="fill:#dcfff8;fill-opacity:1;fill-rule:nonzero;stroke:none" d="m 1072.29,2570.84 h -37.57 v 158.94 h 37.57 v -158.94"/>
      <path id="path144" style="fill:#dcfff8;fill-opacity:1;fill-rule:nonzero;stroke:none" d="m 1581.4,2554.91 h -33.5 v 174.87 h 33.5 v -174.87"/>
      <path id="path146" style="fill:#dcfff8;fill-opacity:1;fill-rule:nonzero;stroke:none" d="m 1631.28,2554.91 h -33.5 v 174.87 h 33.5 v -174.87"/>
      <path id="path148" style="fill:#dcfff8;fill-opacity:1;fill-rule:nonzero;stroke:none" d="m 1681.17,2554.91 h -33.51 v 174.87 h 33.51 v -174.87"/>
      <path id="path150" style="fill:#dcfff8;fill-opacity:1;fill-rule:nonzero;stroke:none" d="m 1731.05,2554.91 h -33.51 v 174.87 h 33.51 v -174.87"/>
      <path id="path152" style="fill:#dcfff8;fill-opacity:1;fill-rule:nonzero;stroke:none" d="m 1780.94,2554.91 h -33.51 v 174.87 h 33.51 v -174.87"/>
      <path id="path154" style="fill:#dcfff8;fill-opacity:1;fill-rule:nonzero;stroke:none" d="m 1830.82,2554.91 h -33.51 v 174.87 h 33.51 v -174.87"/>
      <path id="path156" style="fill:#dcfff8;fill-opacity:1;fill-rule:nonzero;stroke:none" d="m 1880.7,2554.91 h -33.5 v 174.87 h 33.5 v -174.87"/>
      <path id="path158" style="fill:#dcfff8;fill-opacity:1;fill-rule:nonzero;stroke:none" d="m 1930.59,2554.91 h -33.51 v 174.87 h 33.51 v -174.87"/>
      <path id="path160" style="fill:#fff1f0;fill-opacity:1;fill-rule:nonzero;stroke:none" d="m 1368.61,2589.82 h -188.78 v 360.47 h 188.78 v -360.47"/>
      <path id="path162" style="fill:#4c1f0d;fill-opacity:1;fill-rule:nonzero;stroke:none" d="m 1204.47,2585.51 h 134.03 v 342.82 h -134.03 v -342.82"/>
      <path id="path164" style="fill:#504168;fill-opacity:1;fill-rule:nonzero;stroke:none" d="m 1376.11,2568.02 h -205.57 v 21.8 h 205.57 v -21.8"/>
      <path id="path166" style="fill:#504168;fill-opacity:1;fill-rule:nonzero;stroke:none" d="m 1418.92,2547.52 h -295.08 v 23.32 h 295.08 v -23.32"/>
      <path id="path168" style="fill:#504168;fill-opacity:1;fill-rule:nonzero;stroke:none" d="m 1470.32,2524.22 h -365.35 v 26.27 h 365.35 v -26.27"/>
      <path id="path170" style="fill:#465989;fill-opacity:1;fill-rule:nonzero;stroke:none" d="m 2338.3,3090.42 v 126.09 h 435.85 V 3090.42 H 2338.3"/>
      <path id="path172" style="fill:#2f3f60;fill-opacity:1;fill-rule:nonzero;stroke:none" d="m 2373.28,3181.19 h 400.87 v 35.32 H 2338.3 v -126.09 h 34.98 v 90.77"/>
      <path id="path174" style="fill:#ffefee;fill-opacity:1;fill-rule:nonzero;stroke:none" d="m 2769.27,3095.34 h -123.14 v 116.24 h 123.14 z m -133.45,0 h -147.55 v 116.24 h 147.55 z m -157.86,0 h -134.79 v 116.24 h 134.79 z m -144.55,126.1 v -135.95 h 445.62 v 135.95 h -445.62"/>
      <path id="path176" style="fill:#ffefee;fill-opacity:1;fill-rule:nonzero;stroke:none" d="m 2174.18,2529.26 h 637.941 v 490.93 H 2174.18 Z"/>
      <path id="path178" style="fill:#3d2d2d;fill-opacity:1;fill-rule:nonzero;stroke:none" d="m 2196.96,2529.25 h 592.379 v 449.48 H 2196.96 Z"/>
      <path id="path180" style="fill:#725c49;fill-opacity:1;fill-rule:nonzero;stroke:none" d="m 2196.96,2944.29 h 592.379 v 23.8906 H 2196.96 Z"/>
      <path id="path182" style="fill:#725c49;fill-opacity:1;fill-rule:nonzero;stroke:none" d="m 2196.96,2909.86 h 592.379 v 23.8906 H 2196.96 Z"/>
      <path id="path184" style="fill:#725c49;fill-opacity:1;fill-rule:nonzero;stroke:none" d="m 2196.96,2875.4 h 592.379 v 23.9102 H 2196.96 Z"/>
      <path id="path186" style="fill:#725c49;fill-opacity:1;fill-rule:nonzero;stroke:none" d="m 2196.96,2840.96 h 592.379 v 23.8906 H 2196.96 Z"/>
      <path id="path188" style="fill:#725c49;fill-opacity:1;fill-rule:nonzero;stroke:none" d="m 2196.96,2806.53 h 592.379 v 23.8906 H 2196.96 Z"/>
      <path id="path190" style="fill:#725c49;fill-opacity:1;fill-rule:nonzero;stroke:none" d="m 2196.96,2772.11 h 592.379 v 23.8789 H 2196.96 Z"/>
      <path id="path192" style="fill:#725c49;fill-opacity:1;fill-rule:nonzero;stroke:none" d="m 2196.96,2737.67 h 592.379 v 23.8867 H 2196.96 Z"/>
      <path id="path194" style="fill:#725c49;fill-opacity:1;fill-rule:nonzero;stroke:none" d="m 2196.96,2703.24 h 592.379 v 23.8906 H 2196.96 Z"/>
      <path id="path196" style="fill:#725c49;fill-opacity:1;fill-rule:nonzero;stroke:none" d="m 2196.96,2668.81 h 592.379 v 23.8828 H 2196.96 Z"/>
      <path id="path198" style="fill:#725c49;fill-opacity:1;fill-rule:nonzero;stroke:none" d="m 2196.96,2634.37 h 592.379 v 23.8906 H 2196.96 Z"/>
      <path id="path200" style="fill:#725c49;fill-opacity:1;fill-rule:nonzero;stroke:none" d="m 2196.96,2599.95 h 592.379 v 23.8828 H 2196.96 Z"/>
      <path id="path202" style="fill:#725c49;fill-opacity:1;fill-rule:nonzero;stroke:none" d="m 2196.96,2565.52 h 592.379 v 23.8789 H 2196.96 Z"/>
      <path id="path204" style="fill:#725c49;fill-opacity:1;fill-rule:nonzero;stroke:none" d="m 2196.96,2531.08 h 592.379 v 23.8867 H 2196.96 Z"/>
      <g id="g206">
        <g clip-path="url(#clipPath212)" id="g208">
          <path id="path214" style="fill:#332323;fill-opacity:1;fill-rule:nonzero;stroke:none" d="m 2196.96,2529.25 h 53.1602 v 105.121 H 2196.96 Z"/>
        </g>
      </g>
      <path id="path216" style="fill:#332323;fill-opacity:1;fill-rule:nonzero;stroke:none" d="m 2250.12,2658.26 h -53.16 v 10.55 h 53.16 v -10.55 m 0,34.43 h -53.16 v 10.55 h 53.16 v -10.55 m 0,34.44 h -53.16 v 10.54 h 53.16 v -10.54 m 0,34.43 h -53.16 v 10.55 h 53.16 v -10.55 m 0,34.43 h -53.16 v 10.54 h 53.16 v -10.54 m 0,34.43 h -53.16 v 10.54 h 53.16 v -10.54 m 0,34.43 h -53.16 v 10.55 h 53.16 v -10.55 m 0,34.46 h -53.16 v 10.55 h 53.16 v -10.55 m 539.22,34.44 h -592.38 v 10.54 h 592.38 v -10.54 m 0,34.43 h -592.38 v 10.55 h 592.38 v -10.55"/>
      <path id="path218" style="fill:#4b3830;fill-opacity:1;fill-rule:nonzero;stroke:none" d="m 2196.96,2944.29 h 592.379 v 23.8906 H 2196.96 Z"/>
      <path id="path220" style="fill:#4b3830;fill-opacity:1;fill-rule:nonzero;stroke:none" d="m 2250.12,2909.86 h -53.16 v 23.89 h 592.38 -539.22 v -23.89"/>
      <path id="path222" style="fill:#4b3830;fill-opacity:1;fill-rule:nonzero;stroke:none" d="m 2196.96,2875.4 h 53.1602 v 23.9102 H 2196.96 Z"/>
      <path id="path224" style="fill:#4b3830;fill-opacity:1;fill-rule:nonzero;stroke:none" d="m 2196.96,2840.96 h 53.1602 v 23.8906 H 2196.96 Z"/>
      <path id="path226" style="fill:#4b3830;fill-opacity:1;fill-rule:nonzero;stroke:none" d="m 2196.96,2806.53 h 53.1602 v 23.8906 H 2196.96 Z"/>
      <path id="path228" style="fill:#4b3830;fill-opacity:1;fill-rule:nonzero;stroke:none" d="m 2196.96,2772.11 h 53.1602 v 23.8789 H 2196.96 Z"/>
      <path id="path230" style="fill:#4b3830;fill-opacity:1;fill-rule:nonzero;stroke:none" d="m 2196.96,2737.67 h 53.1602 v 23.8867 H 2196.96 Z"/>
      <path id="path232" style="fill:#4b3830;fill-opacity:1;fill-rule:nonzero;stroke:none" d="m 2196.96,2703.24 h 53.1602 v 23.8906 H 2196.96 Z"/>
      <path id="path234" style="fill:#4b3830;fill-opacity:1;fill-rule:nonzero;stroke:none" d="m 2196.96,2668.81 h 53.1602 v 23.8828 H 2196.96 Z"/>
      <path id="path236" style="fill:#4b3830;fill-opacity:1;fill-rule:nonzero;stroke:none" d="m 2196.96,2634.37 h 53.1602 v 23.8906 H 2196.96 Z"/>
      <path id="path238" style="fill:#4b3830;fill-opacity:1;fill-rule:nonzero;stroke:none" d="m 2196.96,2599.95 h 53.1602 v 23.8828 H 2196.96 Z"/>
      <path id="path240" style="fill:#4b3830;fill-opacity:1;fill-rule:nonzero;stroke:none" d="m 2196.96,2565.52 h 53.1602 v 23.8789 H 2196.96 Z"/>
      <path id="path242" style="fill:#4b3830;fill-opacity:1;fill-rule:nonzero;stroke:none" d="m 2196.96,2531.08 h 53.1602 v 23.8867 H 2196.96 Z"/>
      <path id="path244" style="fill:#dcfff8;fill-opacity:1;fill-rule:nonzero;stroke:none" d="M 1104.97,2529.25 H 633.832 v 46.53 h 471.138 v -46.53"/>
      <path id="path246" style="fill:#dcfff8;fill-opacity:1;fill-rule:nonzero;stroke:none" d="M 1096.83,2718.24 H 614.766 v 26.18 h 482.064 v -26.18"/>
      <path id="path248" style="fill:#dcfff8;fill-opacity:1;fill-rule:nonzero;stroke:none" d="m 1941.46,2718.24 h -456.01 v 26.18 h 456.01 v -26.18"/>
      <path id="path250" style="fill:#dcfff8;fill-opacity:1;fill-rule:nonzero;stroke:none" d="m 1941.46,2529.25 h -471.14 v 31.53 h 471.14 v -31.53"/>
      <path id="path252" style="fill:#0c6655;fill-opacity:1;fill-rule:nonzero;stroke:none" d="m 643.191,2529.25 h -37.179 v 519.5 h 37.179 v -519.5"/>
      <path id="path254" style="fill:#dcfff8;fill-opacity:1;fill-rule:nonzero;stroke:none" d="m 1104.97,2535.86 h -66.08 v 512.62 h 66.08 v -512.62"/>
      <path id="path256" style="fill:#dcfff8;fill-opacity:1;fill-rule:nonzero;stroke:none" d="m 1536.4,2529.25 h -66.08 v 519.23 h 66.08 v -519.23"/>
     
    </g>
  </g>
</svg>
