<?xml version="1.0" encoding="utf-8"?>
<svg viewBox="780.488 236.512 2545.454 2161.123" xmlns="http://www.w3.org/2000/svg">
  <g transform="matrix(0.200729, 0, 0, -0.200729, 0, 2666.666748)" id="g30">
    <path id="path32" style="fill:#82b378;fill-opacity:1;fill-rule:nonzero;stroke:none" d="m 13303.4,3661.19 c 0,0 896.7,163.8 1519.2,-345.87 622.6,-509.74 338.9,-928.42 672.3,-1037.69 333.6,-109.2 805.1,-322.89 699.4,-862.32 H 13181 l 122.4,2245.88"/>
  </g>
  <g transform="matrix(0.176327, 0, 0, -0.176327, 0, 2666.666748)" id="g38">
    <path id="path40" style="fill:#cde0fb;fill-opacity:1;fill-rule:nonzero;stroke:none" d="M 16300,2067.08 H 8170.68 V 13263.5 H 16300 V 2067.08"/>
  </g>
  <g transform="matrix(0.177487, 0, 0, -0.177487, 0, 2666.666748)" id="g42">
    <path id="path44" style="fill:#afcdfb;fill-opacity:1;fill-rule:nonzero;stroke:none" d="M 16300,7768.07 H 8010.68 v 356.82 H 16300 v -356.82"/>
  </g>
  <g transform="matrix(0.163963, 0, 0, -0.163963, 0, 2666.666748)" id="g46">
    <path id="path48" style="fill:#e6f0fd;fill-opacity:1;fill-rule:nonzero;stroke:none" d="M 16300,9409.12 H 13911.9 V 12583.6 H 16300 V 9409.12"/>
  </g>
  <g transform="matrix(0.163377, 0, 0, -0.163377, 0, 2666.666748)" id="g50">
    <path id="path52" style="fill:#dfebfd;fill-opacity:1;fill-rule:nonzero;stroke:none" d="M 16300,12570.2 V 9501.31 H 14020.3 V 12570.2 H 16300"/>
  </g>
  <g transform="matrix(0.14596, 0, 0, -0.14596, 0, 2666.666748)" id="g54">
    <path id="path56" style="fill:#afcdfb;fill-opacity:1;fill-rule:nonzero;stroke:none" d="m 16300,14105 v -978.3 c 0,-8.6 -0.1,-17 -0.3,-25.2 -1.6,-76.3 -10.7,-134.9 -21.4,-134.9 h -3.1 c -10.1,0 -18.5,50.5 -21,118.6 -0.2,5.7 -0.4,11.4 -0.5,17.2 v 1.3 c -0.2,7.5 -0.2,15.2 -0.2,23 v 982.8 c 15.6,-1.1 31.2,-2.6 46.5,-4.5"/>
  </g>
  <g transform="matrix(0.148389, 0, 0, -0.148389, 0, 2666.666748)" id="g58">
    <path id="path60" style="fill:#afcdfb;fill-opacity:1;fill-rule:nonzero;stroke:none" d="m 15998.4,12875.9 c -166.7,0 -301.8,-142.8 -301.8,-319 h 603.4 c 0,176.2 -135,319 -301.6,319"/>
  </g>
  <g transform="matrix(0.145861, 0, 0, -0.145861, 0, 2666.666748)" id="g62">
    <path id="path64" style="fill:#cde0fb;fill-opacity:1;fill-rule:nonzero;stroke:none" d="m 16300,13095.1 c -8.8,1.9 -17.8,2.9 -27,2.9 -110.4,0 -200,-144.8 -200,-323.5 h 54 c 0,163.9 75.3,299.3 173,320.6"/>
  </g>
  <g transform="matrix(0.152761, 0, 0, -0.152761, 0, 2666.666748)" id="g66">
    <path id="path68" style="fill:#82b378;fill-opacity:1;fill-rule:nonzero;stroke:none" d="m 15491.1,11168.6 c 0,0 -144.3,168.4 -8.9,275.4 0,0 98.9,59.9 179.6,55 0,0 -114.3,-191.6 -77.3,-210.7 37,-19.1 111.9,222.8 111.9,222.8 0,0 225.1,21.8 297.6,-13 0,0 -192.5,-157.5 -151.9,-166.9 40.5,-9.4 248.4,145.2 248.4,145.2 0,0 209.5,-35.7 198.3,-163.5 -11.1,-127.8 -83.3,-167.3 -115,-163.9 -31.8,3.4 -217.4,74.3 -221.4,48.3 -4.1,-26 107.7,-111 185.9,-115 0,0 -147.7,-162.9 -245.9,-115.9 -98.2,47.1 -106.6,121.6 -167.8,149.5 -61.1,28 -113.4,27.9 -88.1,-0.6 25.2,-28.5 136,-56.2 171,-118.1 35,-61.9 66.4,-103.7 -35.2,-88.4 -101.6,15.3 -266.7,89.6 -274,174.7 -7.2,85.1 -7.2,85.1 -7.2,85.1"/>
  </g>
  <g transform="matrix(0.151692, 0, 0, -0.151692, 0, 2666.666748)" id="g70">
    <path id="path72" style="fill:#82b378;fill-opacity:1;fill-rule:nonzero;stroke:none" d="m 16300,11389.2 c 0,0 -573.2,22.1 -699.7,-141.8 0,0 -28,-83.9 -114.1,-160.2 l -13.5,-36.6 c 0,0 99.3,104.7 134.8,111.1 0,0 -55.5,203 692.5,227.5"/>
  </g>
  <g transform="matrix(0.144789, 0, 0, -0.144789, 0, 2666.666748)" id="g74">
    <path id="path76" style="fill:#82b378;fill-opacity:1;fill-rule:nonzero;stroke:none" d="m 16224.5,11615.8 c 0,0 -128.9,-95.3 -137.9,-265.6 l 23.4,-2.1 c 0,0 41.2,176.1 115.6,244.9 74.4,68.9 -1.1,22.8 -1.1,22.8"/>
  </g>
  <g transform="matrix(0.143512, 0, 0, -0.143512, 0, 2666.666748)" id="g78">
    <path id="path80" style="fill:#a8d29f;fill-opacity:1;fill-rule:nonzero;stroke:none" d="m 16095,11866.9 c 0,0 0,0 -33.4,-71.6 -1.5,-3.2 -3.1,-6.7 -4.7,-10.2 l -0.1,-0.2 c -14.4,-30.9 -50.7,-52.1 -95.9,-65.3 v 587.5 c 32.8,-14.2 54.9,-24.8 54.9,-24.8 0,0 -13.7,-267.8 30.1,-262.3 43.7,5.4 0,237.7 0,237.7 81.9,-24.6 158.5,-120.2 158.5,-120.2 95.6,-155.8 -109.4,-270.6 -109.4,-270.6"/>
  </g>
  <g transform="matrix(0.142189, 0, 0, -0.142189, 0, 2666.666748)" id="g82">
    <path id="path84" style="fill:#82b378;fill-opacity:1;fill-rule:nonzero;stroke:none" d="m 16300,11775.9 v -41.3 c 0,0 -0.8,1.6 -2.1,4.6 l -0.1,0.4 c -1.7,4.2 -3.6,8.2 -5.5,12.1 -0.4,1 -0.8,2 -1.3,3 l -1,2.2 c -3.7,7.9 -8.3,17.6 -13.3,28.1 l -0.2,0.4 c -20.8,42.4 -50.5,97.5 -70.4,109.1 l 0.1,0.2 c 0.5,0.7 2.7,4.2 4.8,10.3 8.3,24.4 14.4,91 -101.6,191.7 v 35.9 c 66.8,-48.4 118.2,-101.1 135.4,-155.3 0,0 -2.7,-93.6 55,-201.1 l 0.2,-0.3"/>
  </g>
  <g transform="matrix(0.142968, 0, 0, -0.142968, 0, 2666.666748)" id="g86">
    <path id="path88" style="fill:#82b378;fill-opacity:1;fill-rule:nonzero;stroke:none" d="m 16211.1,11711.8 c 0,0 88.9,-134.9 38.3,-299.1 l -22.9,6.1 c 0,0 22.2,180.9 -24.3,271.9 -46.5,90.9 8.9,21.1 8.9,21.1"/>
  </g>
  <g transform="matrix(0.152876, 0, 0, -0.152876, 0, 2666.666748)" id="g90">
    <path id="path92" style="fill:#a8d29f;fill-opacity:1;fill-rule:nonzero;stroke:none" d="m 15339.6,11414.5 c 0,0 -253.7,142 -135.3,334.8 0,0 94.7,118.4 196.1,148.8 0,0 -54.1,-287.5 0,-294.2 54.1,-6.8 37.2,324.6 37.2,324.6 0,0 267.2,128.5 372.1,118.4 0,0 -165.7,-280.7 -111.7,-273.9 54.1,6.7 240.1,290.8 240.1,290.8 0,0 274,50.7 317.9,-111.6 44,-162.3 -27,-243.5 -67.6,-253.6 -40.6,-10.2 -301,-6.8 -294.2,-40.6 6.7,-33.8 182.6,-87.9 280.6,-57.5 0,0 -108.2,-267.2 -250.2,-253.6 -142.1,13.5 -186,101.4 -273.9,108.2 -87.9,6.7 -152.2,-16.9 -108.3,-40.6 44,-23.7 192.8,-7.8 263.9,-68.1 71,-60.4 128.4,-97.6 -3.4,-124.7 -131.9,-27 -368.6,-10.1 -416,91.3 -47.3,101.5 -47.3,101.5 -47.3,101.5"/>
  </g>
  <g transform="matrix(0.151289, 0, 0, -0.151289, 0, 2666.666748)" id="g94">
    <path id="path96" style="fill:#82b378;fill-opacity:1;fill-rule:nonzero;stroke:none" d="m 16300,12026.2 c 0,0 -717.6,-232.3 -799.6,-492 0,0 3.4,-116.2 -68.4,-249.5 v -51.2 c 0,0 75.2,174.2 116.2,198.2 0,0 -160.6,225.5 751.8,594.5"/>
  </g>
  <g transform="matrix(0.143875, 0, 0, -0.143875, 0, 2666.666748)" id="g98">
    <path id="path100" style="fill:#82b378;fill-opacity:1;fill-rule:nonzero;stroke:none" d="m 16227.3,11866.3 c 0,0 -116.3,-176.7 -49.9,-391.8 l 29.9,8 c 0,0 -29.1,237 31.8,356.1 60.9,119.2 -11.8,27.7 -11.8,27.7"/>
  </g>
  <g transform="matrix(0.162831, 0, 0, -0.162831, 0, 2666.666748)" id="g102">
    <path id="path104" style="fill:#f99746;fill-opacity:1;fill-rule:nonzero;stroke:none" d="m 15840.7,10022.2 c 0,0 352.4,1435.9 377.9,1556.6 11.3,53.7 46.3,73.2 81.4,78.2 -61.9,6.3 -107,6.8 -107,6.8 -121.9,0 -230.3,-87.3 -269.4,-217 -85.4,-283 -416.2,-756.6 -575.4,-1288 8.1,0.2 492.5,-136.6 492.5,-136.6"/>
  </g>
  <g transform="matrix(0.152548, 0, 0, -0.152548, 0, 2666.666748)" id="g106">
    <path id="path108" style="fill:#f99746;fill-opacity:1;fill-rule:nonzero;stroke:none" d="m 15015.5,10175.8 v 287.3 c 68.3,131.8 137.2,251.1 196.8,344.6 9.2,14.3 18.1,28.1 26.8,41.1 v 0.1 c 2.8,4.2 5.6,8.4 8.4,12.5 v 0.1 c 11.3,17 22.3,32.8 32.6,47.2 v 0.1 c 15.9,22.2 30.4,41.4 43.2,56.9 17.9,21.9 41,39.3 68,52.7 v 0.1 c 2.3,1.2 4.6,2.3 6.9,3.3 10.1,4.8 20.8,9 31.9,12.7 1.1,0.4 2.3,0.8 3.5,1.2 h 0.1 c 31.2,10.3 65.9,16.8 103.1,20.4 h 0.1 c 81.1,7.9 173.7,1.7 265.3,-11.5 h 0.1 c 11.7,-1.7 23.4,-3.4 35.1,-5.4 50.8,-8.2 100.8,-18.3 147.9,-29.2 h 0.5 c 17.2,-4 34,-8 50.2,-12 1.3,-0.4 2.5,-0.6 3.7,-1 h 0.1 c 5.7,-1.4 11.4,-2.9 17,-4.3 25.2,-6.4 49.2,-12.9 71.3,-19.1 91.9,-25.9 152.9,-47.6 152.9,-47.6 l 0.4,-12.4 1.1,-46.3 0.6,-22.7 1.7,-66.8 0.1,-2.9 0.2,-9.2 1.4,-58.1 0.2,-4.8 13.3,-527 h -1284.5"/>
  </g>
  <g transform="matrix(0.157237, 0, 0, -0.157237, 0, 2666.666748)" id="g110">
    <path id="path112" style="fill:#db6f26;fill-opacity:1;fill-rule:nonzero;stroke:none" d="m 16288.9,10402.5 c -7.6,3.7 -18.9,9.3 -33.5,16.4 h -0.1 c -2.8,1.3 -5.7,2.7 -8.6,4.1 h -0.1 c -7.9,3.8 -16.6,7.9 -26.1,12.3 -11.7,5.5 -24.4,11.4 -38.1,17.6 -18.9,8.6 -39.7,18 -62.1,27.7 -6.5,2.9 -13.1,5.8 -20,8.7 h -0.1 c -6.4,2.8 -13,5.6 -19.7,8.4 l -0.1,0.1 c -26.1,11.1 -53.8,22.6 -82.8,34.1 l -0.1,0.1 c -27,10.9 -55.3,21.9 -84.4,32.6 l -4.6,1.8 c -81,30.1 -168.2,59.2 -255.2,82.5 -27.4,7.3 -54.6,14.1 -81.6,20 h -0.1 c -3.7,0.9 -7.4,1.7 -11,2.5 h -0.1 l -0.6,0.2 h -0.1 c -17,3.7 -34,7 -50.8,10 l -0.5,0.1 c -45.5,8.2 -89.7,13.9 -131.9,16.3 -10.1,0.6 -20,1 -29.7,1.2 -77.5,1.8 -146.6,-8.5 -200.5,-35.9 -36.8,-18.8 -66.5,-45.5 -87.2,-81.7 -21.2,-37.3 -49.8,-97 -82.2,-172.5 -60,-139.5 -132.9,-332.8 -195.3,-536.83 h 1470.9 l 3.7,41.56 0.1,0.17 7.4,82.08 36.1,399.62 0.1,1.2 c 0,0 -3.8,2 -11.1,5.6"/>
  </g>
  <g transform="matrix(0.163377, 0, 0, -0.163377, 0, 2666.666748)" id="g114">
    <path id="path116" style="fill:#ffa969;fill-opacity:1;fill-rule:nonzero;stroke:none" d="M 16300,11619.4 V 9501.31 h -82.2 c -58.4,8.25 -116.6,17.22 -173.2,26.94 h -0.1 c -96.6,16.56 -188.3,35.17 -268.1,55.57 -23.5,6.04 -46,12.16 -67.3,18.53 -12.8,3.83 -25.2,7.67 -37,11.59 -6.6,2.12 -13.2,4.32 -19.4,6.53 -89.1,31.09 -146.9,65.2 -154,101.6 -6.4,33.22 9.5,112.3 40,219.7 l 0.1,0.16 c 5.4,19.43 11.4,39.91 17.9,61.17 2.9,9.8 6,19.7 9.1,29.9 1.3,3.8 2.5,7.8 3.7,11.7 l 1.5,4.9 c 1.1,3.5 2.3,7 3.3,10.5 0.3,0.9 0.6,1.8 0.8,2.6 v 0.1 c 7.3,22.8 14.8,46.1 22.7,70.2 11.4,34.2 23.3,69.7 35.8,106.1 16.3,47.6 33.6,96.7 51.5,146.9 5.3,14.6 10.5,29.2 15.8,44 18.8,52.2 38.3,105.2 57.9,158.3 50.6,136.5 103.1,273.7 151.8,399.1 14.7,37.8 29,74.4 42.9,109.7 l 0.1,0.1 c 9.5,24.6 18.9,48.4 28,71.4 26.6,67.6 45.5,132.4 63.1,190.9 v 0.1 c 26.3,87.5 50,160.6 92.9,206.8 25,26.9 56.6,44.6 99.2,50.8 2.5,0.3 5,0.6 7.6,0.9 h 0.2 0.1 c 8.3,0.9 16.9,1.3 25.8,1.3 h 29.5"/>
  </g>
  <g transform="matrix(0.160899, 0, 0, -0.160899, 0, 2666.666748)" id="g118">
    <path id="path120" style="fill:#ffa969;fill-opacity:1;fill-rule:nonzero;stroke:none" d="m 16291.7,9675.02 h -0.1 l -144.8,477.28 -2.4,7.8 c 0,0 -16.3,1.7 -45.6,4.3 -16.5,1.5 -37,3.4 -61.2,5.4 -38.3,3.3 -85.7,7.2 -139.8,11.2 v 0 c -1.6,0.1 -3.1,0.2 -4.7,0.3 h -0.1 c -2.4,0.2 -4.9,0.4 -7.4,0.5 h -0.1 c -10.1,0.9 -20.5,1.6 -31.1,2.4 h -0.1 c -4.8,0.3 -9.6,0.6 -14.5,1 -11.2,0.8 -22.6,1.5 -34.2,2.4 -81.6,5.5 -173.2,11 -269,15.4 -23.5,1.1 -47.4,2 -71.4,3 -8.4,0.4 -16.8,0.6 -25.3,1 -57.2,2 -115.3,3.7 -173.1,4.6 h -0.1 c -78.3,1.2 -156,1.2 -230.4,-0.4 h -0.1 c -5.9,-0.2 -11.7,-0.4 -17.6,-0.5 -36.9,-1 -73,-2.4 -107.8,-4.4 -66.1,-3.7 -127.7,-9.2 -182.4,-17 -33.5,-4.8 -64.4,-10.4 -92.1,-17 -63.2,-14.9 -110.1,-34.8 -134.1,-60.6 -52.3,-56.3 -90.3,-236.47 -117.8,-464.02 H 16300 l -8.3,27.34"/>
  </g>
  <g transform="matrix(0.155531, 0, 0, -0.155531, 0, 2666.666748)" id="g122">
    <path id="path124" style="fill:#ffb27d;fill-opacity:1;fill-rule:nonzero;stroke:none" d="m 16300,11474.6 c 0,0 -84.9,-30.3 -151.8,-166.1 -66.9,-135.7 -94.6,-501.2 -127.8,-504.7 -33,-3.5 -284.7,45.5 -284.7,45.5 l 5.8,-62.7 c 0,0 261.8,-174.2 316.5,-142.9 54.6,31.3 205.7,453.5 215.4,517.4 9.8,63.9 26.6,313.5 26.6,313.5"/>
  </g>
  <g transform="matrix(0.161252, 0, 0, -0.161252, 0, 2666.666748)" id="g126">
    <path id="path128" style="fill:#ffffff;fill-opacity:1;fill-rule:nonzero;stroke:none" d="m 16285.7,11113 c 0,0 -328.4,69.6 -563.9,-45.5 0,0 -151,-325.1 -146.3,-380.2 4.6,-55.2 57.1,-284.9 9.5,-371.6 -47.5,-86.8 436.8,-240.9 524.1,-187.2 87.3,53.7 190.9,924.7 176.6,984.5"/>
  </g>
  <g transform="matrix(0.149919, 0, 0, -0.149919, 0, 2666.666748)" id="g130">
    <path id="path132" style="fill:#163560;fill-opacity:1;fill-rule:nonzero;stroke:none" d="m 16249.6,10539.3 c -23.9,-55.2 -55.5,-117.9 -91.1,-185 h -480.2 c 55.1,287.3 104.3,487.3 128.8,581.3 10.5,40.2 16.5,61 16.5,61 23.4,41.3 51.5,64.2 82.1,73.2 l 0.4,0.1 c 64.6,18.6 140.3,-24.6 207.8,-87.7 8,-7.5 15.9,-15.2 23.5,-23.2 h 0.1 c 25.5,-26.4 49.5,-55.1 70.5,-83.6 48.3,-65 81.8,-128.8 86.4,-161.4 5.6,-39 -12.5,-99.9 -44.8,-174.7"/>
  </g>
  <g transform="matrix(0.15362, 0, 0, -0.15362, 0, 2666.666748)" id="g134">
    <path id="path136" style="fill:#163560;fill-opacity:1;fill-rule:nonzero;stroke:none" d="m 15519.4,10801.5 c 0,0 105.4,60.5 345,8.4 239.5,-52 435.6,-176.4 435.6,-176.4 l -611,-25.4 -169.6,193.4"/>
  </g>
  <g transform="matrix(0.162052, 0, 0, -0.162052, 0, 2666.666748)" id="g138">
    <path id="path140" style="fill:#ffb27d;fill-opacity:1;fill-rule:nonzero;stroke:none" d="m 16114.8,11058.9 c 0,0 145,26.6 165,-91.4 20.2,-118 2.4,-830.3 -108.6,-866.2 -111,-35.9 -566.3,164.4 -566.3,164.4 l 13.8,76.1 c 0,0 435.5,-59.3 451.2,-52.8 15.8,6.6 44.9,769.9 44.9,769.9"/>
  </g>
  <g transform="matrix(0.151537, 0, 0, -0.151537, 0, 2666.666748)" id="g142">
    <path id="path144" style="fill:#b5453c;fill-opacity:1;fill-rule:nonzero;stroke:none" d="m 16034.8,11252.1 -22.1,203.1 287.3,-378.6 c 0,0 -120.3,-59.9 -127.3,-48.4 -7.1,11.5 -137.9,223.9 -137.9,223.9"/>
  </g>
  <g transform="matrix(0.155536, 0, 0, -0.155536, 0, 2666.666748)" id="g146">
    <path id="path148" style="fill:#b5453c;fill-opacity:1;fill-rule:nonzero;stroke:none" d="M 16041.5,10962.8 16300,10568 h -434.3 l -243.1,394.8 h 418.9"/>
  </g>
  <g transform="matrix(0.150275, 0, 0, -0.150275, 0, 2666.666748)" id="g150">
    <path id="path152" style="fill:#ffffff;fill-opacity:1;fill-rule:nonzero;stroke:none" d="m 16169.7,11346.7 -21.1,202.9 151.4,-189.5 -130.3,-13.4"/>
  </g>
  <g transform="matrix(0.155599, 0, 0, -0.155599, 0, 2666.666748)" id="g154">
    <path id="path156" style="fill:#efdece;fill-opacity:1;fill-rule:nonzero;stroke:none" d="m 16280.2,10583.9 19.8,14.2 -256.8,381.7 -8.2,-21.4 245.2,-374.5"/>
  </g>
  <g transform="matrix(0.153148, 0, 0, -0.153148, 0, 2666.666748)" id="g158">
    <path id="path160" style="fill:#fcecdb;fill-opacity:1;fill-rule:nonzero;stroke:none" d="m 16300,11155.6 -415.5,-11.7 -18.2,-10.1 h 425.3 l 8.4,21.8"/>
  </g>
  <g transform="matrix(0.154456, 0, 0, -0.154456, 0, 2666.666748)" id="g162">
    <path id="path164" style="fill:#1c468a;fill-opacity:1;fill-rule:nonzero;stroke:none" d="m 16300,10050 h -466.2 c -22.6,64.3 -43.1,124.3 -61.7,179.7 -46.9,140.3 -81.2,250.8 -103,323.6 -11.5,38.9 -19.6,67 -24.1,83.2 -3.1,10.7 -4.6,16.3 -4.6,16.3 0,2.2 0,4.4 0.1,6.7 0.7,51.8 18.5,86.2 47.2,107.4 1.5,1.1 3,2.1 4.6,3.2 l 0.1,0.1 c 47.3,31.3 121.2,29.9 197.4,12.6 h 0.1 c 68.1,-15.4 137.9,-43.5 192,-72.2 44,-23.3 77.5,-47.1 91.5,-64.7 1,-1.3 2,-2.6 3.1,-4.1 2.6,-3.9 5.4,-8.4 8.1,-13.3 7,-12.9 13.8,-29.2 20.4,-48.5 0.4,-1 0.7,-1.9 1,-2.9 l 0.5,-1.4 c 26.3,-78.4 49.7,-203.2 70.1,-345.3 v -0.1 c 8.4,-57.9 16.2,-118.6 23.4,-180.3"/>
  </g>
  <g transform="matrix(0.157385, 0, 0, -0.157385, 0, 2666.666748)" id="g166">
    <path id="path168" style="fill:#1c468a;fill-opacity:1;fill-rule:nonzero;stroke:none" d="m 15400.3,10569.6 c 0,0 177.1,159 899.7,-183.3 l -593.4,-9 -306.3,192.3"/>
  </g>
  <g transform="matrix(0.155277, 0, 0, -0.155277, 0, 2666.666748)" id="g170">
    <path id="path172" style="fill:#ffb27d;fill-opacity:1;fill-rule:nonzero;stroke:none" d="m 16300,10792.9 c 0,0 -66.6,44.7 -91.2,48.1 -28.8,4.1 -59.8,40.4 -56.7,19.7 3,-20.7 34.9,-47.4 43.7,-56 8.8,-8.7 -49.8,-7.2 -73.5,4.2 -11,5.4 -70,20.7 -69.6,-0.5 0.2,-12.7 23.4,-73.9 81.6,-87.1 26.9,-6.1 156.3,-9.7 156.3,-9.7 l 9.4,81.3"/>
  </g>
  <g transform="matrix(0.161465, 0, 0, -0.161465, 0, 2666.666748)" id="g174">
    <path id="path176" style="fill:#233862;fill-opacity:1;fill-rule:nonzero;stroke:none" d="m 15967.7,11431 c 0,0 122.2,-66.9 28,-200.5 0,0 106.2,-15.3 133.9,14.6 0,0 -4.5,-13.3 -9.4,-19.7 0,0 103.6,10.6 141.7,48.7 38.1,38 -62.6,561.6 -340.4,462.9 0,0 -245.1,-15.4 -183.5,-292.9 61.6,-277.4 -29.9,-290.1 -29.9,-290.1 0,0 27.2,-9.1 39.5,-7.3 0,0 17,9.3 19.1,19.7 0,0 -1.3,-16.1 -5.3,-21.7 0,0 100.2,4.4 144.3,48.6 44.2,44.1 84.1,181.8 62,237.7"/>
  </g>
  <g transform="matrix(0.160317, 0, 0, -0.160317, 0, 2666.666748)" id="g178">
    <path id="path180" style="fill:#233862;fill-opacity:1;fill-rule:nonzero;stroke:none" d="m 16125.5,11372.4 c 0,0 67,94.4 86.3,177.2 13.7,59 88.2,301.9 -135.6,281.8 0,0 -158.1,-23.2 -220.9,-61 -50,-30 -123.3,-96.7 -55.6,-293.7 l 16.8,-66.2 309,-38.1"/>
  </g>
  <g transform="matrix(0.159429, 0, 0, -0.159429, 0, 2666.666748)" id="g182">
    <path id="path184" style="fill:#ffb27d;fill-opacity:1;fill-rule:nonzero;stroke:none" d="m 16070.4,11150.6 c 16.8,-12.3 90.2,-27.4 149,1.7 55.3,27.4 80.6,86.7 72.3,110.9 -8.3,24.3 -33.9,32.4 -61.9,178.6 l -10.8,-4.4 -180.8,-73.9 c 0,0 15.8,-58.4 26.9,-114.1 9.3,-46.8 -4.5,-91.7 5.3,-98.8"/>
  </g>
  <g transform="matrix(0.158637, 0, 0, -0.158637, 0, 2666.666748)" id="g186">
    <path id="path188" style="fill:#ed975d;fill-opacity:1;fill-rule:nonzero;stroke:none" d="m 16118.3,11420.2 c 0,0 15.9,-58.6 27,-114.7 105.1,23.7 142.3,131.1 154.7,189 l -181.7,-74.3"/>
  </g>
  <g transform="matrix(0.159069, 0, 0, -0.159069, 0, 2666.666748)" id="g190">
    <path id="path192" style="fill:#ffb27d;fill-opacity:1;fill-rule:nonzero;stroke:none" d="m 16049.6,11329.4 c 0,0 250.4,44.6 220.2,200.1 -30.1,155.5 -18.2,266 -179.3,244.1 -161.1,-21.9 -180.5,-87.3 -183.1,-141.6 -2.5,-54.4 76.3,-310.2 142.2,-302.6"/>
  </g>
  <g transform="matrix(0.159813, 0, 0, -0.159813, 0, 2666.666748)" id="g194">
    <path id="path196" style="fill:#233862;fill-opacity:1;fill-rule:nonzero;stroke:none" d="m 15907.7,11755.4 c 0,0 122.7,-206.7 243.5,-220.5 120.9,-13.8 148.8,38.9 148.8,38.9 0,0 -99.4,58.7 -135.2,180.2 0,0 -213.1,106 -257.1,1.4"/>
  </g>
  <g transform="matrix(0.156175, 0, 0, -0.156175, 0, 2666.666748)" id="g198">
    <path id="path200" style="fill:#233862;fill-opacity:1;fill-rule:nonzero;stroke:none" d="m 16300,12015.1 c 0,0 -51.7,-54.4 -59.6,-101.5 -7.9,-47 -1.4,-140.7 -28.9,-141.3 0,0 -78.2,133 -23.4,222 58.1,94.4 111.9,20.8 111.9,20.8"/>
  </g>
  <g transform="matrix(0.158437, 0, 0, -0.158437, 0, 2666.666748)" id="g202">
    <path id="path204" style="fill:#233862;fill-opacity:1;fill-rule:nonzero;stroke:none" d="m 16057.5,11835.1 c 0,0 84.4,-206.8 242.5,-254.8 0,0 -166.9,111.1 -199.2,250.8 -32.2,139.8 -43.3,4 -43.3,4"/>
  </g>
  <g transform="matrix(0.161465, 0, 0, -0.161465, 0, 2666.666748)" id="g206">
    <path id="path208" style="fill:#233862;fill-opacity:1;fill-rule:nonzero;stroke:none" d="m 16261.9,11274.1 c -38,-38.1 -141.7,-48.7 -141.7,-48.7 5,6.3 9.4,19.7 9.4,19.7 -54.3,-41.5 -183.7,-6.6 -183.7,-6.6 104.6,20 75.2,170.9 40,178.3 -17.4,113.6 -54.3,255.6 -71.7,319.4 4.6,0.6 7.3,0.8 7.3,0.8 277.8,98.7 378.5,-424.9 340.4,-462.9"/>
  </g>
  <g transform="matrix(0.162356, 0, 0, -0.162356, 0, 2666.666748)" id="g210">
    <path id="path212" style="fill:#ffffff;fill-opacity:1;fill-rule:nonzero;stroke:none" d="m 16037.5,11050.7 c 0,0 159.4,-2.4 201.2,-36.8 41.9,-34.4 61.3,-526.6 61.3,-526.6 0,0 -75.6,20.3 -143.3,4.7 -67.8,-15.6 -157.2,0 -157.2,0 l 38,558.7"/>
  </g>
  <g transform="matrix(0.157057, 0, 0, -0.157057, 0, 2666.666748)" id="g214">
    <path id="path216" style="fill:#ffffff;fill-opacity:1;fill-rule:nonzero;stroke:none" d="m 16300,11414.3 c 0,0 -207.7,-41.6 -255.2,-96.8 -47.4,-55.1 -142.9,-332.6 -142.9,-332.6 0,0 36.9,-5.6 55.9,-31.2 18.9,-25.7 81,-13.6 81,-13.6 l 261.2,474.2"/>
  </g>
  <g transform="matrix(0.163377, 0, 0, -0.163377, 0, 2666.666748)" id="g218">
    <path id="path220" style="fill:#f99746;fill-opacity:1;fill-rule:nonzero;stroke:none" d="m 15305.4,9501.31 c 27.3,59.42 55.2,116.63 82.5,170.41 v 0.08 c 54.6,107.24 107.3,200.6 150.8,269.97 l 0.1,0.16 c 14.6,23.42 28.3,44.07 40.5,61.57 5.5,7.9 10.8,15.1 15.8,21.7 1.4,1.9 2.9,3.6 4.4,5.4 0.8,1 1.5,1.9 2.4,2.9 1.7,2 3.4,4 5.4,5.9 1.1,1.3 2.4,2.6 3.7,3.8 0.9,1 1.8,1.9 2.7,2.7 22.6,21.6 51.1,37.5 83.8,49 36.3,12.5 77.6,19.6 121.8,22.4 42.6,2.7 87.8,1.5 133.5,-2.3 h 0.1 c 46.3,-3.8 92.9,-10.4 137.9,-18.4 15.5,-2.8 30.6,-5.6 45.6,-8.7 l 0.5,-0.1 h 0.4 c 61,-12.4 117.2,-26.7 162.7,-39.4 v -547.09 h -994.6"/>
  </g>
  <g transform="matrix(0.163377, 0, 0, -0.163377, 0, 2666.666748)" id="g222">
    <path id="path224" style="fill:#ed7d2b;fill-opacity:1;fill-rule:nonzero;stroke:none" d="m 15631.3,9501.31 c 4.7,13.39 9.4,26.86 14.2,39.99 l 0.1,0.17 c 8.8,24.72 17.7,48.97 26.5,72.47 25,66.51 49.5,127.8 72.2,181.5 33.6,79.33 63.4,141.92 85,180.12 2.1,3.51 4.1,7.02 6.4,10.36 5.6,8.73 11.9,16.78 18.9,24.28 8.5,9.4 17.9,17.8 28.1,25.3 16.3,12 34.6,21.8 54.7,29.6 43.3,16.7 94.6,24.1 151,24.2 15.6,0 31.6,-0.5 48,-1.4 l 0.5,-0.1 h 0.4 c 27.1,-1.7 54.8,-4.7 83.4,-8.8 4.8,-0.7 9.5,-1.4 14.3,-2.2 1.1,-0.2 2.2,-0.4 3.6,-0.6 20.3,-3.3 40.8,-7.1 61.4,-11.4 v -563.49 h -668.7"/>
  </g>
  <g transform="matrix(0.167404, 0, 0, -0.167404, 0, 2666.666748)" id="g226">
    <path id="path228" style="fill:#8fb7ef;fill-opacity:1;fill-rule:nonzero;stroke:none" d="m 13684.3,11590.6 h 2224.9 V 9273.72 h -2224.9 z m 0,678.2 h 2224.9 V 11719 h -2224.9 z m 2389.1,-2995.08 h -50.1 v 2316.88 128.4 663.9 H 13570.2 V 11719 11590.6 9273.72 h -50.1 c -125.2,0 -226.6,-101.46 -226.6,-226.6 v -7.9 H 16300 v 7.9 c 0,125.14 -101.5,226.6 -226.6,226.6"/>
  </g>
  <g transform="matrix(0.163047, 0, 0, -0.163047, 0, 2666.666748)" id="g230">
    <path id="path232" style="fill:#ffffff;fill-opacity:1;fill-rule:nonzero;stroke:none" d="m 16300,12435.2 h -2208.5 v 111.1 H 16300 v -111.1"/>
  </g>
  <g transform="matrix(0.163047, 0, 0, -0.163047, 0, 2666.666748)" id="g234">
    <path id="path236" style="fill:#ffffff;fill-opacity:1;fill-rule:nonzero;stroke:none" d="m 16300,12260.8 h -2208.5 v 111 H 16300 v -111"/>
  </g>
  <g transform="matrix(0.163047, 0, 0, -0.163047, 0, 2666.666748)" id="g238">
    <path id="path240" style="fill:#ffffff;fill-opacity:1;fill-rule:nonzero;stroke:none" d="m 16300,12086.3 h -2208.5 v 111.1 H 16300 v -111.1"/>
  </g>
  <g transform="matrix(0.163047, 0, 0, -0.163047, 0, 2666.666748)" id="g242">
    <path id="path244" style="fill:#ffffff;fill-opacity:1;fill-rule:nonzero;stroke:none" d="M 16300,11922.9 H 14091.5 V 12034 H 16300 v -111.1"/>
  </g>
  <g transform="matrix(0.163047, 0, 0, -0.163047, 0, 2666.666748)" id="g246">
    <path id="path248" style="fill:#ffffff;fill-opacity:1;fill-rule:nonzero;stroke:none" d="m 16300,11739.2 h -2208.5 v 111.1 H 16300 v -111.1"/>
  </g>
  <g transform="matrix(0.142193, 0, 0, -0.142193, 0, 2666.666748)" id="g250">
    <path id="path252" style="fill:#ffffff;fill-opacity:1;fill-rule:nonzero;stroke:none" d="m 16300,13357.5 h -24.5 v 1088.6 h 24.5 v -1088.6"/>
  </g>
  <g transform="matrix(0.162149, 0, 0, -0.162149, 0, 2666.666748)" id="g254">
    <path id="path256" style="fill:#ffffff;fill-opacity:1;fill-rule:nonzero;stroke:none" d="m 16300,11713.6 h -21.5 v 954.7 h 21.5 v -954.7"/>
  </g>
  <g transform="matrix(0.164491, 0, 0, -0.164491, 0, 2666.666748)" id="g258">
    <path id="path260" style="fill:#f9ddbf;fill-opacity:1;fill-rule:nonzero;stroke:none" d="M 16300,7041.16 V 3876.87 H 13919.5 V 7041.16 H 16300"/>
  </g>
  <g transform="matrix(0.153003, 0, 0, -0.153003, 0, 2666.666748)" id="g262">
    <path id="path264" style="fill:#ffffff;fill-opacity:1;fill-rule:nonzero;stroke:none" d="m 16293.9,7508.57 c 0,0 6.1,-1005.3 -1013.7,-1855.05 0,0 212.5,-1108.05 182.2,-1422.03 h -490 v 3277.08 h 1321.5"/>
  </g>
  <g transform="matrix(0.15378, 0, 0, -0.15378, 0, 2666.666748)" id="g266">
    <path id="path268" style="fill:#ffb27d;fill-opacity:1;fill-rule:nonzero;stroke:none" d="m 16300,5766.77 c 0,0 -105.3,-11.53 -167.3,-116.01 -61.9,-104.48 -181.8,-556.47 -269.4,-648.72 -87.7,-92.26 -396.7,-276.76 -396.7,-276.76 l 78.5,-50.72 c 0,0 470.3,142.97 539.5,226.04 69.2,82.97 166.9,528.02 166.9,528.02 l 48.5,338.15"/>
  </g>
  <g transform="matrix(0.162693, 0, 0, -0.162693, 0, 2666.666748)" id="g270">
    <path id="path272" style="fill:#233862;fill-opacity:1;fill-rule:nonzero;stroke:none" d="m 15505.3,6052.03 c 0,0 5.7,140.79 208.4,149.56 202.7,8.69 348.6,-162.18 355.2,-255.45 6.6,-93.34 -34.8,-238.48 98.2,-334.86 132.9,-96.29 67.5,-544.74 -246.4,-544.74 -313.9,0 -500.9,18.27 -502,180.29 -1.3,162.03 -6.3,308.89 118.4,353.88 124.6,44.99 -31.8,451.32 -31.8,451.32"/>
  </g>
  <g transform="matrix(0.158181, 0, 0, -0.158181, 0, 2666.666748)" id="g274">
    <path id="path276" style="fill:#1c468a;fill-opacity:1;fill-rule:nonzero;stroke:none" d="m 16300,4371.01 c 0,0 -0.4,-1.35 -1.2,-3.88 -0.3,-1.01 -0.7,-2.1 -1.1,-3.45 -0.8,-2.87 -2,-6.58 -3.3,-11.13 -0.4,-1.01 -0.7,-2.19 -1.1,-3.37 -1.1,-3.62 -2.4,-7.84 -3.8,-12.39 -0.8,-2.7 -1.6,-5.57 -2.6,-8.6 -7.3,-24.02 -17.2,-57.4 -29.1,-97.61 -3,-10.37 -6.2,-21.24 -9.5,-32.53 -1.6,-5.57 -3.3,-11.3 -4.9,-17.12 -0.6,-1.93 -1.2,-3.96 -1.7,-5.98 -1.2,-3.96 -2.4,-7.92 -3.5,-11.97 -1.3,-4.55 -2.7,-9.19 -4,-13.99 -3.1,-10.88 -6.4,-22.09 -9.6,-33.55 -7.6,-26.72 -15.5,-54.87 -23.6,-83.95 h -487.7 c 1.2,30.59 2.6,59.5 4.4,86.56 0.4,6.32 0.8,12.48 1.2,18.63 2.1,30.51 4.5,58.67 6.9,84.13 0.7,6.74 1.3,13.31 1.9,19.72 1.4,12.9 2.7,25.03 4.1,36.5 0.2,2.1 0.5,4.13 0.8,6.15 0.2,2.11 0.5,4.13 0.7,6.15 1.5,12.14 3,23.27 4.4,33.38 0.5,3.37 1,6.66 1.4,9.86 0.4,3.12 1,6.24 1.4,9.19 0.4,2.95 0.8,5.73 1.2,8.43 0.5,2.7 0.9,5.23 1.3,7.76 0.2,1.26 0.3,2.44 0.6,3.62 0.6,3.54 1.1,6.83 1.6,9.86 0.4,2.02 0.8,3.96 1,5.74 0.3,1.76 0.7,3.45 0.9,4.97 1.2,6.32 3.2,12.22 5.8,17.53 0.7,1.35 1.5,2.7 2.2,3.96 0.8,1.27 1.6,2.53 2.4,3.71 1.8,2.53 3.7,4.89 5.8,7.16 0.9,1.01 2,2.03 3,2.95 1.1,1.1 2.2,2.11 3.3,3.04 1,0.76 1.8,1.43 2.7,2.11 1.6,1.26 3.2,2.44 4.9,3.54 1.1,0.75 2.2,1.43 3.4,2.1 2.4,1.44 5,2.87 7.6,4.05 1.3,0.68 2.8,1.35 4.2,1.94 1.6,0.76 3.3,1.43 5,2.11 1.6,0.59 3.2,1.18 4.9,1.77 1.5,0.58 3.1,1.09 4.7,1.6 5.5,1.77 11.4,3.28 17.6,4.55 1.4,0.34 2.9,0.59 4.4,0.84 2.3,0.51 4.5,0.93 6.9,1.27 3.1,0.42 6.2,0.93 9.4,1.35 2.1,0.25 4.2,0.5 6.4,0.67 1.7,0.17 3.5,0.34 5.3,0.51 2.9,0.25 6,0.5 9,0.67 3.5,0.17 7.2,0.34 10.9,0.5 17,0.6 35.1,0.18 53.8,-1.01 4.3,-0.25 8.6,-0.59 13,-0.92 7.2,-0.59 14.4,-1.27 21.7,-2.03 10.4,-1.09 21,-2.36 31.7,-3.87 h 0.1 c 1,-0.09 2,-0.26 3,-0.42 5,-0.68 9.9,-1.44 14.9,-2.2 15,-2.27 30,-4.89 44.9,-7.67 5.9,-1.09 11.8,-2.27 17.6,-3.45 l 16.2,-3.29 c 15.1,-3.12 29.9,-6.41 44.3,-9.78 5.4,-1.26 10.6,-2.53 15.8,-3.79 1.4,-0.25 2.7,-0.59 4.1,-1.01 2.6,-0.59 5.1,-1.18 7.6,-1.86 3.7,-0.92 7.5,-1.85 11.2,-2.78 6,-1.6 11.9,-3.12 17.7,-4.55 2.2,-0.59 4.5,-1.18 6.8,-1.77 3.6,-1.01 7.2,-1.94 10.6,-2.87 9.5,-2.53 18.5,-5.05 26.7,-7.41 3.8,-1.1 7.5,-2.11 10.9,-3.12 3,-0.85 5.9,-1.69 8.7,-2.53 l 1.3,-0.34 c 2.4,-0.76 4.8,-1.43 7,-2.02 2.1,-0.67 4.2,-1.26 6.1,-1.86 2.5,-0.75 4.7,-1.43 6.8,-2.1 1.5,-0.43 2.9,-0.85 4.2,-1.27 1.5,-0.42 2.9,-0.84 4.2,-1.26 7.9,-2.45 12.2,-3.88 12.2,-3.88"/>
  </g>
  <g transform="matrix(0.158181, 0, 0, -0.158181, 0, 2666.666748)" id="g278">
    <path id="path280" style="fill:#163560;fill-opacity:1;fill-rule:nonzero;stroke:none" d="m 16300,4371.01 c 0,0 -0.4,-1.35 -1.2,-3.88 -0.3,-1.01 -0.7,-2.1 -1.1,-3.45 -0.8,-2.87 -2,-6.58 -3.3,-11.13 -0.4,-1.01 -0.7,-2.19 -1.1,-3.37 -1.1,-3.62 -2.4,-7.84 -3.8,-12.39 -0.8,-2.7 -1.6,-5.57 -2.6,-8.6 -7.3,-24.02 -17.2,-57.4 -29.1,-97.61 -3,-10.37 -6.2,-21.24 -9.5,-32.53 -1.6,-5.57 -3.3,-11.3 -4.9,-17.12 -0.6,-1.93 -1.2,-3.96 -1.7,-5.98 -1.2,-3.96 -2.4,-7.92 -3.5,-11.97 -1.3,-4.55 -2.7,-9.19 -4,-13.99 -3.1,-10.88 -6.4,-22.09 -9.6,-33.55 -7.6,-26.72 -15.5,-54.87 -23.6,-83.95 h -487.7 c 1.2,30.59 2.6,59.5 4.4,86.56 0.4,6.32 0.8,12.48 1.2,18.63 2.1,30.51 4.5,58.67 6.9,84.13 0.7,6.74 1.3,13.31 1.9,19.72 1.4,12.9 2.7,25.03 4.1,36.5 0.2,2.1 0.5,4.13 0.8,6.15 0.2,2.11 0.5,4.13 0.7,6.15 1.5,12.14 3,23.27 4.4,33.38 0.5,3.37 1,6.66 1.4,9.86 0.4,3.12 1,6.24 1.4,9.19 0.4,2.95 0.8,5.73 1.2,8.43 0.5,2.7 0.9,5.23 1.3,7.76 0.2,1.26 0.3,2.44 0.6,3.62 0.6,3.54 1.1,6.83 1.6,9.86 0.4,2.02 0.8,3.96 1,5.74 0.3,1.76 0.7,3.45 0.9,4.97 1.2,6.32 3.2,12.22 5.8,17.53 0.7,1.35 1.5,2.7 2.2,3.96 0.8,1.27 1.6,2.53 2.4,3.71 1.8,2.53 3.7,4.89 5.8,7.16 0.9,1.01 2,2.03 3,2.95 1.1,1.1 2.2,2.11 3.3,3.04 1,0.76 1.8,1.43 2.7,2.11 1.6,1.26 3.2,2.44 4.9,3.54 1.1,0.75 2.2,1.43 3.4,2.1 2.4,1.44 5,2.87 7.6,4.05 1.3,0.68 2.8,1.35 4.2,1.94 1.6,0.76 3.3,1.43 5,2.11 1.6,0.59 3.2,1.18 4.9,1.77 1.5,0.58 3.1,1.09 4.7,1.6 5.5,1.77 11.4,3.28 17.6,4.55 1.4,0.34 2.9,0.59 4.4,0.84 2.3,0.51 4.5,0.93 6.9,1.27 3.1,0.42 6.2,0.93 9.4,1.35 2.1,0.25 4.2,0.5 6.4,0.67 1.7,0.17 3.5,0.34 5.3,0.51 2.9,0.25 6,0.5 9,0.67 3.5,0.17 7.2,0.34 10.9,0.5 17,0.6 35.1,0.18 53.8,-1.01 4.3,-0.25 8.6,-0.59 13,-0.92 7.2,-0.59 14.4,-1.27 21.7,-2.03 10.4,-1.09 21,-2.36 31.7,-3.87 h 0.1 c 1,-0.09 2,-0.26 3,-0.42 5,-0.68 9.9,-1.44 14.9,-2.2 15,-2.27 30,-4.89 44.9,-7.67 5.9,-1.09 11.8,-2.27 17.6,-3.45 l 16.2,-3.29 c 15.1,-3.12 29.9,-6.41 44.3,-9.78 5.4,-1.26 10.6,-2.53 15.8,-3.79 1.4,-0.25 2.7,-0.59 4.1,-1.01 2.6,-0.59 5.1,-1.18 7.6,-1.86 3.7,-0.92 7.5,-1.85 11.2,-2.78 6,-1.6 11.9,-3.12 17.7,-4.55 2.2,-0.59 4.5,-1.18 6.8,-1.77 3.6,-1.01 7.2,-1.94 10.6,-2.87 9.5,-2.53 18.5,-5.05 26.7,-7.41 3.8,-1.02 7.5,-2.11 10.9,-3.12 3,-0.85 5.9,-1.69 8.7,-2.53 l 1.3,-0.34 c 2.4,-0.67 4.8,-1.43 7,-2.02 2.1,-0.67 4.2,-1.26 6.1,-1.86 2.5,-0.75 4.7,-1.43 6.8,-2.1 1.5,-0.43 2.9,-0.85 4.2,-1.27 1.5,-0.42 2.9,-0.84 4.2,-1.26 7.9,-2.45 12.2,-3.88 12.2,-3.88"/>
  </g>
  <g transform="matrix(0.160633, 0, 0, -0.160633, 0, 2666.666748)" id="g282">
    <path id="path284" style="fill:#1c468a;fill-opacity:1;fill-rule:nonzero;stroke:none" d="m 16288.4,3969.96 h -474.7 c -11.8,66.65 -22.9,128.24 -32.9,181.78 -16.9,91.55 -30.3,159.86 -36.4,190.58 -2.3,11.78 -3.5,18.09 -3.5,18.09 0,0 4.4,5.23 12.1,14.03 h 0.1 c 49.2,55.45 235.2,252 324.1,161.78 14.5,-14.78 30,-30.47 45.7,-47.57 53.1,-57.93 109,-131.39 141.6,-234.9 24,-76.36 35.5,-169 23.9,-283.79"/>
  </g>
  <g transform="matrix(0.157884, 0, 0, -0.157884, 0, 2666.666748)" id="g286">
    <path id="path288" style="fill:#ffb27d;fill-opacity:1;fill-rule:nonzero;stroke:none" d="m 15977.7,5548.72 81.7,-122.54 164.6,8.03 76,196.6 c 0,0 -23.5,4.39 -34.4,249.46 l -205.4,-62.66 c 0,0 10.9,-63.85 -3.7,-133.43 -10.1,-48.56 -32.3,-100.33 -78.8,-135.46"/>
  </g>
  <g transform="matrix(0.159223, 0, 0, -0.159223, 0, 2666.666748)" id="g290">
    <path id="path292" style="fill:#ffb27d;fill-opacity:1;fill-rule:nonzero;stroke:none" d="m 15820.7,5587.75 c 10.4,0 202.4,64.23 476.4,-47.4 0,0 -130.1,-744.28 -74.2,-886.31 55.8,-142.02 77.1,-268.13 77.1,-268.13 l -606.2,-7.45 c 0,0 8.5,487.53 -19.5,660.04 -27.9,172.59 146.4,549.25 146.4,549.25"/>
  </g>
  <g transform="matrix(0.160387, 0, 0, -0.160387, 0, 2666.666748)" id="g294">
    <path id="path296" style="fill:#f99746;fill-opacity:1;fill-rule:nonzero;stroke:none" d="m 16300,4276.16 c -10.1,-21.2 -32.8,-37.91 -60.5,-51.29 -36.2,-17.38 -80.6,-29.1 -116,-37.16 -27.4,-6.32 -69.5,-13.39 -118,-18.79 -25.9,-2.91 -53.5,-5.4 -81.5,-6.98 -4,-0.25 -8,-0.42 -11.9,-0.67 -181.3,-8.98 -384.3,-4.57 -410.8,81.64 -2.5,8.23 -2.5,24.77 -0.9,46.64 3.4,44.47 13.8,110.97 23.9,173.24 9.6,59.53 19,115.22 21.7,144.07 13.9,152.88 -15.3,372.26 -19.5,514.34 -3.5,118.46 102.1,408.01 102.1,408.01 0,0 20.1,11.89 98.5,22.7 0,0 11.3,-142.08 84.3,-154.13 126.4,-20.86 228.1,94.77 257.9,141.41 0,0 145.1,-36.58 187.6,-85.13 30.6,-34.92 26.6,-118.3 17.5,-170.84 -2.8,-16.62 -6.2,-30.17 -9.1,-37.99 -9.1,-23.69 -43,-197.93 -58.6,-267.35 -0.3,-1.83 -0.6,-3.41 -1,-4.91 -1.1,-4.65 -2,-8.72 -2.8,-12.13 l -0.2,-0.25 c -0.8,-3.74 -1.6,-6.65 -2.2,-8.48 -0.3,-1.17 -0.8,-2.33 -1.1,-3.41 l -0.1,-0.25 c -22.3,-71.24 -35.8,-143.98 -27.9,-233.19 0.9,-10.47 3.3,-23.11 7,-37.32 20.1,-103.67 104.1,-308.01 121.6,-401.78"/>
  </g>
  <g transform="matrix(0.157551, 0, 0, -0.157551, 0, 2666.666748)" id="g298">
    <path id="path300" style="fill:#ed975d;fill-opacity:1;fill-rule:nonzero;stroke:none" d="m 16090.5,5696.19 c 85.1,6.86 209.5,196.51 209.5,196.51 l -205.9,-62.8 c 0,0 10.9,-63.98 -3.6,-133.71"/>
  </g>
  <g transform="matrix(0.154751, 0, 0, -0.154751, 0, 2666.666748)" id="g302">
    <path id="path304" style="fill:#f99746;fill-opacity:1;fill-rule:nonzero;stroke:none" d="m 16300,5754.14 c 0,0 -201.2,-21.54 -268.4,-116.06 -67.3,-94.52 -110,-236.25 -110,-236.25 0,0 48,-144.06 188.2,-126.06 140.3,18.01 190.2,478.37 190.2,478.37"/>
  </g>
  <g transform="matrix(0.157785, 0, 0, -0.157785, 0, 2666.666748)" id="g306">
    <path id="path308" style="fill:#ffb27d;fill-opacity:1;fill-rule:nonzero;stroke:none" d="m 16035.8,5765.57 c 0,0 250.9,7.61 243.7,163.85 -7,156.17 20.5,262.39 -140,264.16 -160.5,1.69 -188.9,-59.32 -199.2,-112.05 -10.3,-52.73 30,-313.93 95.5,-315.96"/>
  </g>
  <g transform="matrix(0.158291, 0, 0, -0.158291, 0, 2666.666748)" id="g310">
    <path id="path312" style="fill:#233862;fill-opacity:1;fill-rule:nonzero;stroke:none" d="m 16003.8,6193.48 c 0,0 7.6,-51.64 106.2,-119.28 98.5,-67.63 115.5,-225.15 115.5,-225.15 0,0 74.5,279.82 -14.7,342.83 -89.1,63.09 -207,1.6 -207,1.6"/>
  </g>
  <g transform="matrix(0.156199, 0, 0, -0.156199, 0, 2666.666748)" id="g314">
    <path id="path316" style="fill:#233862;fill-opacity:1;fill-rule:nonzero;stroke:none" d="m 16300,6365.91 c 0,0 -129.7,12.29 -221.9,-133.25 -39.6,-62.74 -8.7,-160.65 32.4,-212.04 0,0 13.5,133.76 84.2,178.75 70.8,44.98 105.3,166.54 105.3,166.54"/>
  </g>
  <g transform="matrix(0.155784, 0, 0, -0.155784, 0, 2666.666748)" id="g318">
    <path id="path320" style="fill:#ffffff;fill-opacity:1;fill-rule:nonzero;stroke:none" d="m 16300,5931.89 c 0,0 -2.3,-19.52 -49.9,-22 0,0 -40,-2.05 -41.2,18.92 0,0 36.8,19.25 91.1,3.08"/>
  </g>
  <g transform="matrix(0.151483, 0, 0, -0.151483, 0, 2666.666748)" id="g322">
    <path id="path324" style="fill:#82b378;fill-opacity:1;fill-rule:nonzero;stroke:none" d="m 15913.7,5016.53 c 0,0 -68.9,80.46 -4.2,131.51 0,0 47.2,28.6 85.7,26.31 0,0 -54.6,-91.54 -36.9,-100.69 17.6,-9.07 53.4,106.41 53.4,106.41 0,0 107.6,10.39 142.2,-6.24 0,0 -91.9,-75.17 -72.6,-79.66 19.3,-4.49 118.6,69.36 118.6,69.36 0,0 100.1,-17.08 94.8,-78.08 -5.3,-61.08 -39.9,-79.92 -55,-78.33 -15.1,1.67 -103.8,35.47 -105.7,23.06 -1.9,-12.41 51.4,-52.99 88.8,-54.84 0,0 -70.6,-77.81 -117.5,-55.36 -46.8,22.44 -50.9,58 -80.1,71.38 -29.2,13.38 -54.1,13.29 -42.1,-0.26 12.1,-13.64 65,-26.85 81.7,-56.42 16.7,-29.58 31.7,-49.55 -16.8,-42.25 -48.5,7.3 -127.4,42.78 -130.9,83.44 -3.4,40.66 -3.4,40.66 -3.4,40.66"/>
  </g>
  <g transform="matrix(0.150977, 0, 0, -0.150977, 0, 2666.666748)" id="g326">
    <path id="path328" style="fill:#82b378;fill-opacity:1;fill-rule:nonzero;stroke:none" d="m 16300,5100.83 c 0,0 -272.7,10.51 -332.9,-67.47 0,0 -13.4,-39.92 -54.4,-76.21 l -6.3,-17.4 c 0,0 47.2,49.81 64.1,52.81 0,0 -26.4,96.62 329.5,108.27"/>
  </g>
  <g transform="matrix(0.147708, 0, 0, -0.147708, 0, 2666.666748)" id="g330">
    <path id="path332" style="fill:#82b378;fill-opacity:1;fill-rule:nonzero;stroke:none" d="m 16264.9,5066.85 c 0,0 -59.9,-44.24 -64,-123.31 l 10.9,-0.99 c 0,0 19.1,81.78 53.6,113.73 34.6,31.96 -0.5,10.57 -0.5,10.57"/>
  </g>
  <g transform="matrix(0.146672, 0, 0, -0.146672, 0, 2666.666748)" id="g334">
    <path id="path336" style="fill:#a8d29f;fill-opacity:1;fill-rule:nonzero;stroke:none" d="m 16186.7,5285.52 c 0,0 113.3,63.45 60.4,149.45 0,0 -42.3,52.91 -87.5,66.45 0,0 24.1,-128.36 0,-131.36 -24.2,-3 -16.7,145 -16.7,145 0,0 -119.2,57.36 -166.1,52.82 0,0 74,-125.27 49.8,-122.27 -24.1,2.99 -107.1,129.81 -107.1,129.81 0,0 -122.4,22.72 -142,-49.82 -19.7,-72.45 12.1,-108.72 30.2,-113.27 18.1,-4.54 134.4,-3 131.4,-18.08 -3.1,-15.1 -81.5,-39.28 -125.4,-25.64 0,0 48.3,-119.36 111.8,-113.27 63.4,6 83.1,45.27 122.3,48.27 39.3,3.09 67.9,-7.55 48.3,-18.09 -19.6,-10.54 -86.1,-3.45 -117.7,-30.45 -31.7,-26.91 -57.5,-43.54 1.4,-55.64 58.9,-12.09 164.7,-4.54 185.8,40.82 21.1,45.27 21.1,45.27 21.1,45.27"/>
  </g>
  <g transform="matrix(0.146101, 0, 0, -0.146101, 0, 2666.666748)" id="g338">
    <path id="path340" style="fill:#82b378;fill-opacity:1;fill-rule:nonzero;stroke:none" d="m 15895.3,5524.47 c 0,0 318.3,-103.12 354.7,-218.29 0,0 -1.6,-51.57 30.3,-110.7 v -22.73 c 0,0 -33.3,77.3 -51.6,87.98 0,0 71.3,100.02 -333.4,263.74"/>
  </g>
  <g transform="matrix(0.146365, 0, 0, -0.146365, 0, 2666.666748)" id="g342">
    <path id="path344" style="fill:#82b378;fill-opacity:1;fill-rule:nonzero;stroke:none" d="m 16251,5186.13 c 0,0 49,-74.43 21,-164.98 l -12.5,3.37 c 0,0 12.2,99.84 -13.4,149.95 -25.7,50.19 4.9,11.66 4.9,11.66"/>
  </g>
  <g transform="matrix(0.152361, 0, 0, -0.152361, 0, 2666.666748)" id="g346">
    <path id="path348" style="fill:#a8d29f;fill-opacity:1;fill-rule:nonzero;stroke:none" d="m 15755.9,5172.37 c 0,0 -143.7,80.51 -76.7,189.73 0,0 53.6,67.03 111.1,84.27 0,0 -30.6,-162.86 0,-166.71 30.7,-3.76 21.1,183.95 21.1,183.95 0,0 151.4,72.9 210.8,67.12 0,0 -93.9,-159.09 -63.2,-155.24 30.6,3.85 136,164.78 136,164.78 0,0 155.2,28.79 180.1,-63.18 24.9,-91.97 -15.3,-138.01 -38.3,-143.7 -23,-5.77 -170.5,-3.84 -166.7,-23.01 3.9,-19.17 103.4,-49.88 159,-32.55 0,0 -61.2,-151.4 -141.8,-143.79 -80.5,7.7 -105.3,57.5 -155.2,61.35 -49.8,3.85 -86.2,-9.63 -61.3,-23.02 24.9,-13.39 109.3,-4.37 149.5,-38.59 40.2,-34.22 72.8,-55.31 -1.9,-70.62 -74.7,-15.32 -208.9,-5.78 -235.8,51.72 -26.7,57.49 -26.7,57.49 -26.7,57.49"/>
  </g>
  <g transform="matrix(0.151465, 0, 0, -0.151465, 0, 2666.666748)" id="g350">
    <path id="path352" style="fill:#82b378;fill-opacity:1;fill-rule:nonzero;stroke:none" d="m 16300,5480.49 c 0,0 -404.8,-131.08 -451.1,-277.56 0,0 2,-65.49 -38.5,-140.67 v -28.96 c 0,0 42.4,98.33 65.5,111.8 0,0 -90.6,127.2 424.1,335.39"/>
  </g>
  <g transform="matrix(0.147277, 0, 0, -0.147277, 0, 2666.666748)" id="g354">
    <path id="path356" style="fill:#82b378;fill-opacity:1;fill-rule:nonzero;stroke:none" d="m 16260,5206.22 c 0,0 -64.2,-97.5 -27.6,-216.19 l 16.4,4.44 c 0,0 -16,130.72 17.6,196.45 33.6,65.73 -6.4,15.3 -6.4,15.3"/>
  </g>
  <g transform="matrix(0.14986, 0, 0, -0.14986, 0, 2666.666748)" id="g358">
    <path id="path360" style="fill:#1c468a;fill-opacity:1;fill-rule:nonzero;stroke:none" d="m 16300,4937.32 c 0,-158.02 -128.1,-286.23 -286.2,-286.23 -32.9,0 -64.7,5.61 -94.2,15.93 -111.8,38.97 -192,145.29 -192,270.3 h 572.4"/>
  </g>
  <g transform="matrix(0.14766, 0, 0, -0.14766, 0, 2666.666748)" id="g362">
    <path id="path364" style="fill:#285ba5;fill-opacity:1;fill-rule:nonzero;stroke:none" d="m 16252.3,4720.38 c -11.7,-1.45 47.7,0 35.4,0 -160.3,0 -290.4,130.11 -290.4,290.48 h 72.2 c 0,-148.18 39.4,-272.69 182.8,-290.48"/>
  </g>
  <g transform="matrix(0.149897, 0, 0, -0.149897, 0, 2666.666748)" id="g366">
    <path id="path368" style="fill:#163560;fill-opacity:1;fill-rule:nonzero;stroke:none" d="m 16300,4635.45 h -580.2 c 0,9.7 4,18.59 10.3,24.91 6.4,6.4 15.3,10.4 25,10.4 h 509.6 c 19.5,0 35.3,-15.83 35.3,-35.31"/>
  </g>
  <g transform="matrix(0.14992, 0, 0, -0.14992, 0, 2666.666748)" id="g370">
    <path id="path372" style="fill:#163560;fill-opacity:1;fill-rule:nonzero;stroke:none" d="m 16300,4926.61 h -588.1 v 8.71 h 588.1 v -8.71"/>
  </g>
  <g transform="matrix(0.150628, 0, 0, -0.150628, 0, 2666.666748)" id="g374">
    <path id="path376" style="fill:#ffb27d;fill-opacity:1;fill-rule:nonzero;stroke:none" d="m 16234.8,4806.03 c -6.4,15.14 -68.2,30.1 -92.8,40.72 0,0 -15.7,-11.24 5.3,-29.74 5.7,-5.05 16.2,-12.75 26.1,-19.74 -3,0.8 -6,1.5 -8.9,2.3 -22.1,6.02 -164.6,-42.58 -181.5,-74.27 -16.9,-31.6 81.7,-110.56 155.5,-85.77 37.8,12.74 161.5,35.23 161.5,35.23 l -20.7,100.02 c 0,0 -38,16.02 -44.5,31.25"/>
  </g>
  <g transform="matrix(0.160451, 0, 0, -0.160451, 0, 2666.666748)" id="g378">
    <path id="path380" style="fill:#ffb27d;fill-opacity:1;fill-rule:nonzero;stroke:none" d="m 16272.5,5391.56 c 0,0 27.5,-190.79 -171.4,-473.66 -198.9,-282.96 -187.3,-300.66 -301.4,-375.78 -114.1,-75.12 -497.6,-153.56 -497.6,-153.56 l -19.5,93.9 c 0,0 372,239.24 407.4,286.44 35.4,47.28 274.4,578.37 274.4,578.37 l 308.1,44.29"/>
  </g>
  <g transform="matrix(0.160732, 0, 0, -0.160732, 0, 2666.666748)" id="g382">
    <path id="path384" style="fill:#f99746;fill-opacity:1;fill-rule:nonzero;stroke:none" d="m 16053.4,5452.8 c 0,0 -158.5,-124.18 -200.5,-184.9 -42.2,-60.64 -80.9,-196.44 -80.9,-196.44 0,0 165.8,-103.94 451.8,-28.87 0,0 76.2,353.72 -1.8,399.76 -78,45.96 -150.3,10.45 -150.3,10.45 h -18.3"/>
  </g>
  <g transform="matrix(0.163391, 0, 0, -0.163391, 0, 2666.666748)" id="g386">
    <path id="path388" style="fill:#ffffff;fill-opacity:1;fill-rule:nonzero;stroke:none" d="m 15320.4,7031.17 c 0,0 174.5,-770.83 979.6,-1043.64 0,0 -7.6,-1187.99 -98.6,-1500.61 -90.9,-312.54 -113.7,-524.47 -113.7,-524.47 h 212.3 v 3068.72 h -979.6"/>
  </g>
  <g transform="matrix(0.167404, 0, 0, -0.167404, 0, 2666.666748)" id="g390">
    <path id="path392" style="fill:#8fb7ef;fill-opacity:1;fill-rule:nonzero;stroke:none" d="m 13684.3,6184.38 h 2224.9 V 3867.44 h -2224.9 z m 0,678.2 h 2224.9 v -549.89 h -2224.9 z m 2389.1,-2995.14 h -50.1 v 2316.94 128.31 663.94 H 13570.2 V 6312.69 6184.38 3867.44 h -50.1 c -125.2,0 -226.6,-101.39 -226.6,-226.6 v -7.88 H 16300 v 7.88 c 0,125.21 -101.5,226.6 -226.6,226.6"/>
  </g>
  <g transform="matrix(0.177487, 0, 0, -0.177487, 0, 2666.666748)" id="g394">
    <path id="path396" style="fill:#77a4e5;fill-opacity:1;fill-rule:nonzero;stroke:none" d="M 8010.68,1607.49 H 16300 V 2742 H 8010.68 V 1607.49"/>
  </g>
  <path id="path398" style="fill: rgb(168, 210, 159); fill-opacity: 1; fill-rule: nonzero; stroke: none; pointer-events: none;" d="M 1771.225 2386.573 C 1771.225 2386.573 1743.972 2288.6 1630.705 2255.72 C 1517.452 2222.84 1524.758 2239.28 1422.452 2180.827 C 1320.156 2122.36 1159.398 2158.894 1126.517 2206.4 C 1093.636 2253.894 1016.91 2279.467 910.957 2277.64 C 805.004 2275.814 799.649 2379 799.649 2379 L 1771.225 2386.573" transform="matrix(0.999932, -0.01165, 0.01165, 0.999932, -26.342316, 15.129301)"/>
  <path id="path404" style="fill:#e6f0fd;fill-opacity:1;fill-rule:nonzero;stroke:none" d="M 1657.64 2028.96 L 2049.2 2028.96 L 2049.2 1508.467 L 1657.64 1508.467 L 1657.64 2028.96 Z"/>
  <path id="path406" style="fill:#ffcb9c;fill-opacity:1;fill-rule:nonzero;stroke:none" d="M 2039.653 2019.4 L 1667.187 2019.4 L 1667.187 1518.013 L 2039.653 1518.013 L 2039.653 2019.4"/>
  <path id="path408" style="fill:#233862;fill-opacity:1;fill-rule:nonzero;stroke:none" d="M 1819 1959.533 C 1819 1959.533 1797.52 1988.827 1797.52 2019.4 L 1943.307 2019.4 C 1943.307 2019.4 1935.493 1971.893 1902.307 1959.533 C 1869.107 1947.16 1819 1959.533 1819 1959.533"/>
  <path id="path410" style="fill:#ffb27d;fill-opacity:1;fill-rule:nonzero;stroke:none" d="M 1997.4 1801.667 C 1997.4 1801.667 1974.48 1859.987 1971.92 1862.04 C 1965.027 1867.6 1922.667 1802.92 1916.16 1791.627 C 1909.653 1780.333 1869.44 1789.987 1866.013 1769 C 1864.96 1762.547 1862.827 1755.493 1862.813 1750.973 C 1862.8 1750.427 1862.813 1749.867 1862.813 1749.32 C 1862.853 1745.24 1863.133 1740.813 1863.72 1736.08 L 1861.707 1736.24 L 1827.973 1738.84 C 1827.973 1738.84 1831.36 1747.027 1830.227 1756.8 C 1829.853 1760 1829.72 1766.013 1829.333 1771.907 C 1828.893 1778.467 1824.427 1784.053 1818.12 1785.907 C 1803.667 1790.147 1785.76 1796.52 1782.64 1804.56 C 1776.56 1820.2 1762.893 1890.853 1760.293 1914.8 C 1757.693 1938.747 1733.4 2008.987 1733.4 2008.987 L 1745.547 2008.987 C 1745.547 2008.987 1791.093 1932.36 1795 1920.387 C 1796.2 1916.72 1800.547 1902.053 1805.987 1883.52 C 1811.067 1903.68 1818.307 1923.813 1819.867 1931.987 C 1822.613 1946.307 1796.307 1992.507 1798.907 2005.32 C 1801.507 2018.12 1940.787 2025.053 1938.893 2005.32 C 1936.987 1985.587 1917.36 1952.16 1913.453 1936.547 C 1910.507 1924.76 1917.333 1885.453 1919.453 1862.107 C 1940.733 1886.413 1969.653 1909.08 1978.533 1904.44 C 2001.307 1892.507 2008.467 1804.427 2008.467 1804.427 L 1997.4 1801.667"/>
  <path id="path412" style="fill:#233862;fill-opacity:1;fill-rule:nonzero;stroke:none" d="M 1838.907 1717.933 C 1838.907 1717.933 1820.76 1732.373 1836.08 1753.253 C 1836.08 1753.253 1818.32 1752.52 1813.84 1747.88 C 1813.84 1747.88 1814.587 1749.973 1815.373 1750.96 C 1815.373 1750.96 1798.947 1749.6 1792.8 1743.693 C 1786.653 1737.773 1800.987 1654.56 1845.293 1669.347 C 1845.293 1669.347 1884.133 1671.027 1875.24 1715.16 C 1866.333 1759.28 1880.867 1761.013 1880.867 1761.013 C 1880.867 1761.013 1876.587 1762.52 1874.64 1762.293 C 1874.64 1762.293 1871.907 1760.853 1871.533 1759.213 C 1871.533 1759.213 1871.8 1761.76 1872.44 1762.64 C 1872.44 1762.64 1856.573 1762.253 1849.44 1755.387 C 1842.32 1748.533 1835.573 1726.853 1838.907 1717.933"/>
  <path id="path414" style="fill:#233862;fill-opacity:1;fill-rule:nonzero;stroke:none" d="M 1822.893 1736.12 C 1822.893 1736.12 1815.04 1719.693 1814.28 1706.347 C 1813.733 1696.827 1822.613 1662.827 1856.747 1671.947 C 1856.747 1671.947 1866.72 1674.147 1875.44 1681.693 C 1882.373 1687.68 1891.947 1699.973 1876.173 1728.68 L 1871.8 1738.493 L 1822.893 1736.12"/>
  <path id="path416" style="fill:#ed975d;fill-opacity:1;fill-rule:nonzero;stroke:none" d="M 1866.013 1769 C 1841.653 1765.44 1827.92 1739.827 1827.92 1739.827 C 1837.853 1738.72 1851.72 1743.773 1862.813 1749.32 C 1862.813 1749.867 1862.8 1750.427 1862.813 1750.973 C 1862.827 1755.493 1864.387 1762.667 1866.013 1769"/>
  <path id="path418" style="fill:#ffb27d;fill-opacity:1;fill-rule:nonzero;stroke:none" d="M 1866.333 1759.28 C 1866.333 1759.28 1822.6 1754.787 1825.813 1727.6 C 1829.027 1700.4 1825.547 1681.507 1853.6 1683.227 C 1881.667 1684.947 1885.853 1695.96 1886.987 1705.293 C 1888.12 1714.627 1877.787 1759.747 1866.333 1759.28"/>
  <path id="path420" style="fill:#233862;fill-opacity:1;fill-rule:nonzero;stroke:none" d="M 1873.56 1684.933 C 1873.56 1684.933 1857.813 1715.4 1838.907 1717.933 C 1820 1720.453 1812.64 1714.6 1812.64 1714.6 C 1812.64 1714.6 1828.04 1705.093 1833.28 1685.947 C 1833.28 1685.947 1866.36 1668.68 1873.56 1684.933"/>
  <path id="path422" style="fill:#233862;fill-opacity:1;fill-rule:nonzero;stroke:none" d="M 1870.293 1687.173 C 1870.293 1687.173 1878.373 1695.36 1879.72 1702.533 C 1881.067 1709.72 1880.347 1724.093 1884.56 1724.107 C 1884.56 1724.107 1896.147 1703.493 1887.493 1690.027 C 1878.32 1675.733 1870.293 1687.173 1870.293 1687.173"/>
  <path id="path424" style="fill:#233862;fill-opacity:1;fill-rule:nonzero;stroke:none" d="M 1871.827 1688.44 C 1871.827 1688.44 1859.32 1720.827 1834.907 1728.76 C 1834.907 1728.76 1860.493 1711 1865.093 1689.187 C 1869.693 1667.373 1871.827 1688.44 1871.827 1688.44"/>
  <path id="path426" style="fill:#ffffff;fill-opacity:1;fill-rule:nonzero;stroke:none" d="M 1857.36 1743.4 C 1857.36 1743.4 1858.453 1747.32 1861.133 1747.893 C 1863.813 1748.48 1870.813 1749.24 1871.44 1748.72 C 1872.067 1748.2 1874.16 1744.733 1874.16 1744.733 C 1874.16 1744.733 1862.933 1742.147 1857.36 1743.4"/>
  <path id="path428" style="fill:#ffb27d;fill-opacity:1;fill-rule:nonzero;stroke:none" d="M 1996.947 1804.96 C 1996.947 1804.96 1996.16 1784.2 1998.36 1777.08 C 2000.573 1769.947 2005.373 1758.467 2006.453 1758.947 C 2007.533 1759.427 2009.667 1774.987 2008.76 1778.48 C 2007.867 1781.96 2009.68 1790.24 2011.067 1788.587 C 2012.453 1786.933 2014.627 1775.893 2016.44 1776.547 C 2018.267 1777.2 2016.573 1783.907 2017.44 1785.587 C 2018.307 1787.28 2018.24 1791.787 2014.72 1797.52 C 2011.187 1803.24 2007.773 1809.8 2007.773 1809.8 L 1996.947 1804.96"/>
  <path id="path430" style="fill:#ffb27d;fill-opacity:1;fill-rule:nonzero;stroke:none" d="M 1736.013 2008.987 C 1736.013 2008.987 1718.427 2004.773 1712.653 2006.773 C 1706.867 2008.773 1696.32 2019.067 1699.04 2019.24 C 1701.76 2019.4 1713.84 2016.147 1715.533 2016.587 C 1717.24 2017.013 1722.173 2017.653 1722.173 2017.653 C 1722.173 2017.653 1715.027 2018.107 1715.373 2019.4 C 1715.707 2020.707 1733.867 2020.933 1736.013 2019.4 C 1738.16 2017.88 1745.547 2008.987 1745.547 2008.987 L 1736.013 2008.987"/>
  <path id="path432" style="fill:#ffffff;fill-opacity:1;fill-rule:nonzero;stroke:none" d="M 1799.347 1792.387 C 1799.347 1792.387 1821.413 1811.267 1849.493 1809.8 C 1877.573 1808.32 1899.707 1785.227 1899.707 1785.227 C 1899.707 1785.227 1912.493 1785.333 1919.227 1792.48 C 1925.947 1799.64 1951.547 1831.747 1951.547 1831.747 C 1951.547 1831.747 1953.787 1855.84 1925.027 1872.653 L 1922.12 1867.44 C 1922.12 1867.44 1917.267 1927.427 1920.307 1933.053 C 1923.347 1938.707 1947.213 1997.72 1943.307 2006.773 C 1939.4 2015.827 1808.76 2038.093 1798.907 2005.32 C 1789.067 1972.547 1813.64 1944.12 1812.64 1932.413 C 1811.627 1920.693 1805.987 1883.52 1805.987 1883.52 C 1805.987 1883.52 1768.24 1877.747 1766.933 1855.173 C 1766.933 1855.173 1773.613 1792.067 1799.347 1792.387"/>
  <path id="path434" style="fill:#8fb7ef;fill-opacity:1;fill-rule:nonzero;stroke:none" d="M 1667.427 1631.373 L 2039.88 1631.373 L 2039.88 2019.24 L 1667.427 2019.24 L 1667.427 1631.373 Z M 1667.427 1517.84 L 2039.88 1517.84 L 2039.88 1609.893 L 1667.427 1609.893 L 1667.427 1517.84 Z M 2067.373 2019.24 L 2058.987 2019.24 L 2058.987 1498.747 L 1648.32 1498.747 L 1648.32 1609.893 L 1648.32 1631.373 L 1648.32 2019.24 L 1639.933 2019.24 C 1618.973 2019.24 1602 2036.213 1602 2057.173 L 1602 2058.493 L 2105.307 2058.493 L 2105.307 2057.173 C 2105.307 2036.213 2088.32 2019.24 2067.373 2019.24"/>
  <path id="path436" style="fill:#ffffff;fill-opacity:1;fill-rule:nonzero;stroke:none" d="M 2034.267 1544.187 L 1674.173 1544.187 L 1674.173 1526.08 L 2034.267 1526.08 L 2034.267 1544.187"/>
  <path id="path438" style="fill:#ffffff;fill-opacity:1;fill-rule:nonzero;stroke:none" d="M 2034.267 1572.627 L 1674.173 1572.627 L 1674.173 1554.52 L 2034.267 1554.52 L 2034.267 1572.627"/>
  <path id="path440" style="fill:#ffffff;fill-opacity:1;fill-rule:nonzero;stroke:none" d="M 2034.267 1601.067 L 1674.173 1601.067 L 1674.173 1582.96 L 2034.267 1582.96 L 2034.267 1601.067"/>
  <path id="path442" style="fill:#ffffff;fill-opacity:1;fill-rule:nonzero;stroke:none" d="M 2034.267 1627.707 L 1674.173 1627.707 L 1674.173 1609.6 L 2034.267 1609.6 L 2034.267 1627.707"/>
  <path id="path444" style="fill:#ffffff;fill-opacity:1;fill-rule:nonzero;stroke:none" d="M 2034.267 1657.653 L 1674.173 1657.653 L 1674.173 1639.547 L 2034.267 1639.547 L 2034.267 1657.653"/>
  <path id="path446" style="fill:#ffffff;fill-opacity:1;fill-rule:nonzero;stroke:none" d="M 1694.373 1672.347 L 1690.893 1672.347 L 1690.893 1517.547 L 1694.373 1517.547 L 1694.373 1672.347"/>
  <path id="path448" style="fill:#ffffff;fill-opacity:1;fill-rule:nonzero;stroke:none" d="M 2019.64 1672.347 L 2016.16 1672.347 L 2016.16 1517.547 L 2019.64 1517.547 L 2019.64 1672.347"/>
  <path id="path450" style="fill:#fcecdb;fill-opacity:1;fill-rule:nonzero;stroke:none" d="M 1939.747 2004.733 L 1886.733 2004.733 L 1886.733 1986.013 L 1939.92 1986.013 C 1944.053 1986.013 1947.4 1989.36 1947.4 1993.493 L 1947.4 1997.08 C 1947.4 2001.307 1943.973 2004.733 1939.747 2004.733"/>
  <path id="path452" style="fill:#699dee;fill-opacity:1;fill-rule:nonzero;stroke:none" d="M 1992.653 1993.72 L 1992.653 1996.533 C 1992.653 1998.04 1992.24 1999.44 1991.533 2000.653 C 1990.12 2003.093 1987.467 2004.733 1984.44 2004.733 L 1885.107 2004.733 C 1884.453 2004.733 1883.92 2004.2 1883.92 2003.547 L 1883.92 2003.12 C 1883.92 2002.467 1884.453 2001.933 1885.107 2001.933 L 1945.667 2001.933 C 1945.987 2001.533 1946.267 2001.107 1946.507 2000.653 C 1947.08 1999.587 1947.4 1998.373 1947.4 1997.08 L 1947.4 1993.493 C 1947.4 1992.84 1947.32 1992.2 1947.16 1991.587 C 1946.88 1990.56 1946.4 1989.613 1945.747 1988.813 L 1885.107 1988.813 C 1884.453 1988.813 1883.92 1988.28 1883.92 1987.613 L 1883.92 1987.2 C 1883.92 1986.547 1884.453 1986.013 1885.107 1986.013 L 1984.947 1986.013 C 1988.467 1986.013 1991.427 1988.373 1992.347 1991.587 C 1992.547 1992.267 1992.653 1992.973 1992.653 1993.72"/>
  <path id="path454" style="fill:#548ee2;fill-opacity:1;fill-rule:nonzero;stroke:none" d="M 1992.347 1991.587 L 1947.16 1991.587 C 1946.88 1990.56 1946.4 1989.613 1945.747 1988.813 L 1885.107 1988.813 C 1884.453 1988.813 1883.92 1988.28 1883.92 1987.613 L 1883.92 1987.2 C 1883.92 1986.547 1884.453 1986.013 1885.107 1986.013 L 1984.947 1986.013 C 1988.467 1986.013 1991.427 1988.373 1992.347 1991.587"/>
  <path id="path456" style="fill:#f4d2b8;fill-opacity:1;fill-rule:nonzero;stroke:none" d="M 1886.733 1995.373 L 1894.093 1995.68 L 1886.733 1995.88 L 1886.733 1995.373 Z"/>
  <path id="path458" style="fill:#f4d2b8;fill-opacity:1;fill-rule:nonzero;stroke:none" d="M 1886.733 1998.307 L 1904.227 1998.627 L 1886.733 1998.813 L 1886.733 1998.307 Z"/>
  <path id="path460" style="fill:#b5453c;fill-opacity:1;fill-rule:nonzero;stroke:none" d="M 1898.08 2019.24 L 1954.507 2019.24 L 1954.507 2004.667 L 1897.613 2004.667 C 1893.72 2004.667 1890.56 2007.827 1890.56 2011.72 C 1890.56 2015.867 1893.933 2019.24 1898.08 2019.24"/>
  <path id="path462" style="fill:#fcecdb;fill-opacity:1;fill-rule:nonzero;stroke:none" d="M 1951.267 2019.24 L 2015.493 2019.24 L 2015.493 2004.667 L 1951.107 2004.667 C 1947.147 2004.667 1943.933 2007.88 1943.933 2011.84 L 1943.933 2011.907 C 1943.933 2015.947 1947.213 2019.24 1951.267 2019.24"/>
  <path id="path464" style="fill:#b5453c;fill-opacity:1;fill-rule:nonzero;stroke:none" d="M 1939.64 2019.24 L 2017.72 2019.24 C 2018.32 2019.24 2018.813 2018.747 2018.813 2018.147 C 2018.813 2017.547 2018.32 2017.053 2017.72 2017.053 L 1939.64 2017.053 C 1939.04 2017.053 1938.56 2017.547 1938.56 2018.147 C 1938.56 2018.747 1939.04 2019.24 1939.64 2019.24"/>
  <path id="path466" style="fill:#b5453c;fill-opacity:1;fill-rule:nonzero;stroke:none" d="M 1939.64 2006.853 L 2017.72 2006.853 C 2018.32 2006.853 2018.813 2006.36 2018.813 2005.76 C 2018.813 2005.16 2018.32 2004.667 2017.72 2004.667 L 1939.64 2004.667 C 1939.04 2004.667 1938.56 2005.16 1938.56 2005.76 C 1938.56 2006.36 1939.04 2006.853 1939.64 2006.853"/>
  <path id="path468" style="fill:#f4d2b8;fill-opacity:1;fill-rule:nonzero;stroke:none" d="M 2015.493 2011.947 L 2006.813 2012.2 L 2015.493 2012.347 L 2015.493 2011.947 Z"/>
  <path id="path470" style="fill:#f4d2b8;fill-opacity:1;fill-rule:nonzero;stroke:none" d="M 2015.493 2008.6 L 1994.853 2008.84 L 2015.493 2009 L 2015.493 2008.6 Z"/>
  <path id="path472" style="fill:#699dee;fill-opacity:1;fill-rule:nonzero;stroke:none" d="M 1995.067 2008.8 C 1995.067 2008.8 1995.947 2009.427 1996.24 2010.453 C 1996.293 2010.627 1996.333 2010.827 1996.333 2011.027 C 1996.387 2012.4 1996.333 2015.493 1996.333 2015.493 L 1998.947 2013.947 L 2001.547 2015.493 L 2001.547 2011.293 C 2001.547 2010.507 2001.333 2009.733 2000.907 2009.227 C 2000.707 2008.987 2000.467 2008.8 2000.187 2008.8 L 1995.067 2008.8"/>
  <path id="path474" style="fill:#568cdb;fill-opacity:1;fill-rule:nonzero;stroke:none" d="M 1995.067 2008.8 C 1995.067 2008.8 1995.947 2009.427 1996.24 2010.453 L 2001.48 2010.507 C 2001.48 2010.507 2001.267 2009.04 2000.187 2008.8 L 1995.067 2008.8"/>
  <path id="path476" style="fill:#dfebfd;fill-opacity:1;fill-rule:nonzero;stroke:none" d="M 2041.08 603.427 L 2041.08 1123.92 L 1649.52 1123.92 L 1649.52 603.427 L 2041.08 603.427"/>
  <path id="path478" style="fill:#ffffff;fill-opacity:1;fill-rule:nonzero;stroke:none" d="M 1837.693 612.814 C 1837.693 612.814 1836.76 766.614 1992.787 896.64 C 1992.787 896.64 1960.28 1066.16 1964.92 1114.2 L 2039.88 1114.2 L 2039.88 612.814 L 1837.693 612.814"/>
  <path id="path480" style="fill:#d39e7a;fill-opacity:1;fill-rule:nonzero;stroke:none" d="M 1698.04 904.667 C 1698.04 904.667 1665.4 909.28 1656.987 916.654 C 1642.773 929.08 1653.187 1118.36 1653.187 1118.36 C 1653.187 1118.36 1702.28 1122.414 1702.28 1118.36 C 1702.28 1114.307 1698.04 904.667 1698.04 904.667"/>
  <path id="path482" style="fill:#efcbab;fill-opacity:1;fill-rule:nonzero;stroke:none" d="M 1826.027 1118.707 L 1755.84 1123.92 L 1706.933 1127.547 L 1696.613 1128.32 L 1695.973 1123.92 L 1695.413 1120.027 L 1695.293 1119.16 L 1692.827 1102.04 L 1692.813 1101.987 L 1691.84 1095.24 L 1688.84 1074.414 L 1673.467 967.96 L 1669.187 938.294 C 1669.187 938.294 1665.933 910.307 1691.96 905.747 C 1693.867 905.414 1695.88 905.054 1697.947 904.68 L 1698.04 904.667 C 1706.853 903.094 1716.933 901.28 1726.853 900.014 C 1735.04 898.96 1743.12 898.28 1750.28 898.414 C 1753.36 898.467 1756.267 898.68 1758.933 899.067 C 1762.4 899.56 1765.467 900.374 1768.013 901.574 C 1768.307 901.694 1768.587 901.84 1768.867 902 C 1769.88 902.52 1770.787 903.107 1771.6 903.787 C 1771.947 904.067 1772.267 904.374 1772.573 904.68 C 1773.453 905.574 1774.48 907.467 1775.64 910.2 C 1776.893 913.174 1778.293 917.134 1779.813 921.92 C 1781.933 928.574 1784.28 936.787 1786.76 946.054 C 1793.68 972.014 1801.627 1006.227 1808.56 1037.347 C 1808.773 1038.294 1808.987 1039.227 1809.187 1040.16 C 1810.08 1044.174 1810.96 1048.134 1811.8 1052 C 1811.84 1052.187 1811.893 1052.374 1811.933 1052.56 C 1812.093 1053.28 1812.24 1054 1812.4 1054.72 C 1812.827 1056.64 1813.24 1058.547 1813.653 1060.414 C 1814.453 1064.147 1815.24 1067.774 1816 1071.267 C 1821.093 1094.894 1824.813 1112.827 1825.773 1117.507 C 1825.947 1118.294 1826.027 1118.707 1826.027 1118.707"/>
  <path id="path484" style="fill:#f4a269;fill-opacity:1;fill-rule:nonzero;stroke:none" d="M 1781.64 921.24 C 1781.64 921.24 1792.733 937.654 1799.067 972.16 C 1804.6 1002.387 1809.467 1013.547 1817.467 1019.747 C 1825.467 1025.947 1870.053 1044.24 1870.053 1044.24 L 1866.72 1052.054 C 1866.72 1052.054 1801.373 1043.147 1794.027 1032.227 C 1786.693 1021.307 1758.707 956.774 1760.88 941.92 C 1763.053 927.054 1781.64 921.24 1781.64 921.24"/>
  <path id="path486" style="fill:#ed7d2b;fill-opacity:1;fill-rule:nonzero;stroke:none" d="M 1931.347 1123.92 L 1877.4 1123.92 C 1876.053 1118.547 1874.053 1115.147 1870.253 1114.947 C 1866.827 1114.76 1848.253 1116.734 1825.773 1117.507 C 1790.107 1118.747 1744.627 1117 1734.387 1098.96 C 1731.933 1094.654 1730.147 1090.347 1728.88 1086.134 L 1728.88 1086.12 C 1728.68 1085.494 1728.507 1084.894 1728.333 1084.28 C 1726.24 1076.494 1725.853 1069.107 1726.293 1062.68 C 1726.547 1058.934 1727.08 1055.507 1727.72 1052.534 C 1729.293 1045.094 1731.493 1040.454 1731.493 1040.454 L 1749.107 1053.347 L 1749.12 1053.347 L 1751.093 1054.787 C 1751.093 1054.787 1766.227 1053.654 1787.04 1052.774 C 1791.653 1052.587 1796.547 1052.4 1801.627 1052.254 C 1804.147 1052.174 1806.707 1052.107 1809.307 1052.054 C 1810.133 1052.027 1810.973 1052.014 1811.8 1052 C 1818.093 1051.867 1824.547 1051.8 1830.973 1051.8 C 1831.613 1051.8 1832.253 1051.8 1832.88 1051.814 C 1834.4 1051.814 1835.907 1051.827 1837.413 1051.84 C 1862.267 1052.094 1885.88 1053.72 1897.867 1058.254 C 1899.547 1058.88 1901 1059.574 1902.2 1060.334 L 1902.32 1060.414 C 1910.96 1066.054 1921.453 1092.454 1931.347 1123.92"/>
  <path id="path488" style="fill:#f99746;fill-opacity:1;fill-rule:nonzero;stroke:none" d="M 1881.84 1123.92 L 1755.84 1123.92 L 1706.933 1127.547 C 1704.56 1126.454 1702.413 1125.254 1700.52 1123.92 C 1698.787 1122.72 1697.28 1121.414 1696 1120 C 1695.76 1119.72 1695.52 1119.44 1695.293 1119.16 C 1694.507 1118.2 1693.84 1117.187 1693.293 1116.12 C 1690.827 1111.36 1689.973 1106.76 1690.293 1102.4 L 1690.293 1102.387 C 1690.467 1099.92 1691 1097.534 1691.84 1095.24 C 1693.813 1089.774 1697.413 1084.8 1701.573 1080.467 C 1712.107 1069.494 1726.187 1062.68 1726.187 1062.68 L 1726.293 1062.68 C 1727.693 1062.747 1742.387 1063.48 1761.8 1065.107 L 1761.813 1065.107 C 1763.68 1065.254 1765.587 1065.427 1767.533 1065.587 L 1767.547 1065.587 C 1782.733 1066.947 1800.093 1068.8 1816 1071.267 C 1836.52 1074.454 1854.613 1078.64 1862.493 1084.054 C 1868.627 1088.267 1875.307 1103.6 1881.84 1123.92"/>
  <path id="path490" style="fill:#b5453c;fill-opacity:1;fill-rule:nonzero;stroke:none" d="M 1779.133 861.52 L 1779.12 861.267 L 1779.12 861.254 C 1779.08 859.094 1778.973 856.947 1778.827 854.814 C 1778.387 848.4 1777.56 842.187 1776.4 836.614 C 1775.747 833.427 1774.987 830.454 1774.147 827.747 C 1774.013 827.334 1773.88 826.934 1773.747 826.534 L 1773.747 826.52 C 1771.693 820.387 1769.187 815.894 1766.44 814.08 C 1761.427 810.774 1755.2 810.027 1750.827 810 C 1752.027 808.92 1754.267 808.64 1754.267 808.64 C 1751.587 808.054 1745.36 810.334 1745.36 810.334 C 1708.653 793.307 1699.04 848.387 1698.973 861.32 C 1698.893 874.267 1698 889.107 1678.427 899.414 C 1670.92 903.36 1665.96 908.134 1662.84 913.254 C 1649.96 934.387 1668.48 961.467 1668.48 961.467 C 1668.56 961.52 1670.587 964.16 1673.467 967.96 C 1680.933 977.774 1694.147 995.28 1694.147 995.28 L 1694.147 995.254 C 1694.107 992.894 1696.133 988.294 1699.6 982.414 C 1702.16 978.08 1705.493 973.04 1709.36 967.694 C 1711.187 965.16 1713.133 962.56 1715.173 959.92 C 1717.88 956.427 1720.747 952.867 1723.72 949.36 C 1724.853 948.014 1726 946.667 1727.16 945.347 C 1732.413 939.347 1737.893 933.574 1743.267 928.534 C 1744.52 927.36 1745.76 926.227 1746.987 925.134 L 1747 925.134 C 1748.533 923.787 1750.053 922.494 1751.547 921.307 C 1754.427 918.987 1757.227 916.974 1759.893 915.347 C 1760.013 915.267 1760.133 915.2 1760.267 915.12 L 1760.28 915.12 C 1760.653 914.894 1761.013 914.68 1761.387 914.467 C 1762.52 913.027 1763.547 911.387 1764.48 909.64 C 1764.827 908.987 1765.173 908.32 1765.48 907.64 C 1766.44 905.64 1767.28 903.574 1768.013 901.574 C 1770.2 895.494 1771.347 890 1771.56 889.014 C 1770.76 894.267 1769.84 898.534 1768.867 902 C 1768.213 904.307 1767.547 906.254 1766.893 907.907 C 1766.413 909.107 1765.947 910.134 1765.48 911.04 C 1765.28 911.454 1765.067 911.84 1764.867 912.2 C 1765.16 911.96 1765.44 911.72 1765.72 911.467 C 1766.787 910.52 1767.773 909.454 1768.693 908.267 C 1769.76 906.907 1770.72 905.414 1771.6 903.787 C 1777.4 893.12 1779.507 877.12 1779.133 861.52"/>
  <path id="path492" style="fill:#ffb27d;fill-opacity:1;fill-rule:nonzero;stroke:none" d="M 1760.733 906.92 C 1760.093 906.654 1759.333 906.36 1758.547 906.08 C 1758.587 904.4 1758.68 902.614 1758.813 900.814 C 1759.387 892.547 1760.6 883.827 1760.6 883.827 L 1733.107 876.454 L 1731.48 876.014 C 1730.72 888.134 1728.253 896.427 1726.093 902.04 C 1723.24 902.16 1721.44 902.334 1721.44 902.334 C 1720.973 903.987 1721.44 906.574 1722.96 909.44 C 1722.76 909.96 1722.6 910.414 1722.52 910.8 C 1720.8 918.494 1740.173 929.36 1749.147 929.747 C 1754.4 929.987 1757.213 927.894 1758.68 925.24 C 1769.627 922.4 1768.773 910.28 1760.733 906.92"/>
  <path id="path494" style="fill:#f4a269;fill-opacity:1;fill-rule:nonzero;stroke:none" d="M 1760.6 883.827 C 1760.6 883.827 1759.387 892.547 1758.813 900.814 C 1743.253 899.334 1735.96 884.56 1733.107 876.454 L 1760.6 883.827"/>
  <path id="path496" style="fill:#b5453c;fill-opacity:1;fill-rule:nonzero;stroke:none" d="M 1730.44 873.227 C 1730.44 873.227 1723.133 859.787 1721.907 848.614 C 1721.027 840.64 1726.987 811.707 1756.053 817.867 C 1756.053 817.867 1764.52 819.28 1772.173 825.227 C 1778.267 829.947 1786.84 839.854 1774.853 864.654 L 1771.613 873.08 L 1730.44 873.227"/>
  <path id="path498" style="fill:#ffb27d;fill-opacity:1;fill-rule:nonzero;stroke:none" d="M 1765.28 892 C 1765.28 892 1728.36 890.147 1729.867 867.174 C 1731.373 844.2 1727.627 828.494 1751.267 828.694 C 1774.893 828.907 1778.893 837.974 1780.253 845.76 C 1781.627 853.56 1774.92 891.88 1765.28 892"/>
  <path id="path500" style="fill:#b5453c;fill-opacity:1;fill-rule:nonzero;stroke:none" d="M 1768.093 829.254 C 1768.093 829.254 1756.2 855.534 1740.44 858.48 C 1724.68 861.44 1718.24 856.84 1718.24 856.84 C 1718.24 856.84 1730.747 848.187 1734.32 831.867 C 1734.32 831.867 1761.333 815.92 1768.093 829.254"/>
  <path id="path502" style="fill:#b5453c;fill-opacity:1;fill-rule:nonzero;stroke:none" d="M 1765.44 831.28 C 1765.44 831.28 1772.587 837.8 1774.04 843.774 C 1775.48 849.747 1775.507 861.84 1779.04 861.667 C 1779.04 861.667 1787.867 843.854 1780.013 832.92 C 1771.68 821.334 1765.44 831.28 1765.44 831.28"/>
  <path id="path504" style="fill:#739af0;fill-opacity:1;fill-rule:nonzero;stroke:none" d="M 1802.227 1056.707 C 1799.24 1060.28 1789.907 1061.387 1779.933 1063.027 C 1772.093 1064.32 1763.853 1065.947 1757.987 1069.387 C 1744.68 1077.2 1701.2 1103.6 1688.453 1102.4 C 1683.52 1101.934 1684.44 1092.507 1687.427 1079.987 C 1692.147 1060.227 1702 1032.787 1702 1020.84 C 1702 1014.334 1704.173 998.92 1707.067 981.294 C 1707.307 979.88 1707.547 978.44 1707.787 977 C 1713.507 942.734 1721.44 902.347 1721.44 902.347 C 1721.44 902.347 1730.28 921.627 1747.507 921.627 C 1764.733 921.627 1760.733 906.92 1760.733 906.92 C 1760.733 906.92 1776.453 908.774 1780.16 912.774 C 1783.88 916.774 1793.307 934.067 1795.173 938.774 C 1795.173 938.774 1795.547 944.774 1780.693 947.64 C 1780.693 947.64 1784.307 963.934 1784.747 974.787 C 1785.053 982.814 1779.267 1007.92 1777.6 1023.534 C 1777.013 1029.067 1776.933 1033.4 1777.827 1035.374 C 1778.973 1037.894 1782.693 1040.414 1786.933 1042.867 C 1795.333 1047.76 1805.773 1052.467 1802.227 1056.707"/>
  <path id="path506" style="fill:#4a75cb;fill-opacity:1;fill-rule:nonzero;stroke:none" d="M 1786.933 1042.867 C 1796.467 1059.134 1761.067 1064.014 1755.2 1067.467 C 1741.893 1075.28 1701.2 1103.6 1688.453 1102.4 C 1683.52 1101.934 1684.44 1092.507 1687.427 1079.987 C 1692.147 1060.227 1702 1032.787 1702 1020.84 C 1702 1014.334 1704.173 998.92 1707.067 981.294 L 1722.4 966.574 C 1722.4 966.574 1738.84 1009.054 1754.507 1016.014 C 1762.72 1019.667 1771.293 1022.067 1777.6 1023.534 C 1777.013 1029.067 1776.933 1033.4 1777.827 1035.374 C 1778.973 1037.894 1782.693 1040.414 1786.933 1042.867"/>
  <path id="path508" style="fill:#233862;fill-opacity:1;fill-rule:nonzero;stroke:none" d="M 1838.493 1060.414 L 1790.24 1060.414 L 1790.24 1054.72 L 1838.493 1054.72 L 1838.493 1060.414"/>
  <path id="path510" style="fill:#233862;fill-opacity:1;fill-rule:nonzero;stroke:none" d="M 1828.24 1059.64 C 1828.72 1057.747 1872.6 988.827 1872.6 988.827 L 1970.267 988.827 L 1921.28 1057.787 L 1828.24 1059.64"/>
  <path id="path512" style="fill:#2b478b;fill-opacity:1;fill-rule:nonzero;stroke:none" d="M 1832.347 1060.414 C 1832.827 1058.534 1876.853 988.827 1876.853 988.827 L 1970.267 988.827 L 1923.667 1060.414 L 1832.347 1060.414"/>
  <path id="path514" style="fill:#afcdfb;fill-opacity:1;fill-rule:nonzero;stroke:none" d="M 1909.653 1027.014 C 1908.693 1029.814 1905.653 1032.08 1902.867 1032.08 C 1900.067 1032.08 1898.587 1029.814 1899.547 1027.014 C 1900.507 1024.227 1903.547 1021.96 1906.347 1021.96 C 1909.133 1021.96 1910.613 1024.227 1909.653 1027.014"/>
  <path id="path516" style="fill:#ffb27d;fill-opacity:1;fill-rule:nonzero;stroke:none" d="M 1816.747 1036.867 C 1814.733 1036 1799.133 1038.84 1794.68 1039.667 C 1780.56 1036.907 1734.133 1027.627 1731.88 1024.72 C 1729.213 1021.294 1723.387 916.8 1716.72 915.054 C 1716.72 915.054 1703.6 907.094 1690.92 922.2 C 1678.24 937.307 1699.933 1045.32 1718.72 1050.867 C 1739.6 1057.027 1799.893 1049.88 1799.893 1049.88 C 1804.84 1051.56 1813.493 1052.52 1818.093 1054.054 C 1824.16 1056.08 1829.56 1054.387 1830.907 1052.027 C 1832.253 1049.667 1819.107 1037.88 1816.747 1036.867"/>
  <path id="path518" style="fill:#739af0;fill-opacity:1;fill-rule:nonzero;stroke:none" d="M 1721.44 902.334 C 1721.44 902.334 1694.493 904.76 1686.68 913.627 C 1678.853 922.48 1676.573 946.494 1676.573 946.494 C 1676.573 946.494 1700.293 965.64 1728.867 958.214 L 1721.44 902.334"/>
  <path id="path520" style="fill:#ffffff;fill-opacity:1;fill-rule:nonzero;stroke:none" d="M 1827.48 612.814 C 1827.48 612.814 1798.973 738.76 1667.427 783.334 C 1667.427 783.334 1668.667 977.427 1683.533 1028.507 C 1698.387 1079.587 1702.107 1114.2 1702.107 1114.2 L 1667.427 1114.2 L 1667.427 612.814 L 1827.48 612.814"/>
  <path id="path522" style="fill:#8fb7ef;fill-opacity:1;fill-rule:nonzero;stroke:none" d="M 2039.88 1114.2 L 1667.427 1114.2 L 1667.427 726.347 L 2039.88 726.347 L 2039.88 1114.2 Z M 2039.88 704.867 L 1667.427 704.867 L 1667.427 612.814 L 2039.88 612.814 L 2039.88 704.867 Z M 1602 1152.134 L 1602 1153.454 L 2105.307 1153.454 L 2105.307 1152.134 C 2105.307 1131.187 2088.32 1114.2 2067.373 1114.2 L 2058.987 1114.2 L 2058.987 726.347 L 2058.987 704.867 L 2058.987 593.707 L 1648.32 593.707 L 1648.32 704.867 L 1648.32 726.347 L 1648.32 1114.2 L 1639.933 1114.2 C 1618.973 1114.2 1602 1131.187 1602 1152.134"/>
  <path id="path524" style="fill:#6bb7bf;fill-opacity:1;fill-rule:nonzero;stroke:none" d="M 1976.573 1076.4 C 1976.573 1076.4 1989.787 1081.76 1999.187 1068.28 C 1999.187 1068.28 1983.933 1065.694 1976.573 1076.4"/>
  <path id="path526" style="fill:#6bb7bf;fill-opacity:1;fill-rule:nonzero;stroke:none" d="M 1975.64 1070.867 C 1975.64 1070.867 1974.707 1066.134 1969.173 1065.974 C 1969.173 1065.974 1971.253 1070.76 1975.64 1070.867"/>
  <path id="path528" style="fill:#6bb7bf;fill-opacity:1;fill-rule:nonzero;stroke:none" d="M 1978.427 1043.2 C 1978.427 1043.2 1984.84 1043.894 1987.24 1036.867 C 1987.24 1036.867 1980.293 1037.64 1978.427 1043.2"/>
  <path id="path530" style="fill:#6bb7bf;fill-opacity:1;fill-rule:nonzero;stroke:none" d="M 1993.64 950.32 C 1980.707 947.547 1980.48 936.96 1980.48 936.96 C 1995.72 941.774 1993.64 950.32 1993.64 950.32"/>
  <path id="path532" style="fill:#6bb7bf;fill-opacity:1;fill-rule:nonzero;stroke:none" d="M 1994.533 947.907 C 1994.533 947.907 2002.6 951.187 2008.333 942.947 C 2008.333 942.947 1999.027 941.374 1994.533 947.907"/>
  <path id="path534" style="fill:#6bb7bf;fill-opacity:1;fill-rule:nonzero;stroke:none" d="M 1976.827 1107.427 L 1975.147 1109.36 C 1974.893 1109.64 1974.413 1109.467 1974.413 1109.08 C 1974.507 1054.614 1981.427 1006.214 1987.227 977.667 C 1993.573 946.507 2000 928.08 2000.067 927.907 C 2000 928.08 1994.2 946.8 1987.88 977.88 C 1982.067 1006.467 1975.413 1043.854 1977.093 1106.694 C 1977.107 1106.96 1977 1107.227 1976.827 1107.427"/>
  <path id="path536" style="fill:#f99746;fill-opacity:1;fill-rule:nonzero;stroke:none" d="M 1999.96 920.48 C 1997.893 922.134 1989.987 929.2 1997.653 934.654 C 1997.653 934.654 2003.533 936.52 2005.48 931.987 C 2006.96 928.534 2007.36 924.68 2007.467 923.054 C 2007.493 922.627 2007.173 922.267 2006.747 922.227 C 2006.307 922.187 2005.693 922.08 2005.093 921.854 C 2004.36 921.574 2004 920.467 2003.013 920.227 C 2002.4 920.08 2001.773 919.947 2001.053 920.014 C 2000.653 920.054 2000.267 920.227 1999.96 920.48"/>
  <path id="path538" style="fill:#6bb7bf;fill-opacity:1;fill-rule:nonzero;stroke:none" d="M 1995.573 932.68 C 1995.573 932.68 1997.907 934.56 1997.04 937.547 L 1997.013 938.654 C 1997.013 938.654 1997.64 935.894 2000.507 935.027 C 2000.507 935.027 1997.92 935.32 1995.573 932.68"/>
  <path id="path540" style="fill:#8ad8db;fill-opacity:1;fill-rule:nonzero;stroke:none" d="M 1993.64 950.32 C 1980.707 947.547 1980.48 936.96 1980.48 936.96 C 1980.48 936.96 1990.733 942.587 1993.64 950.32"/>
  <path id="path542" style="fill:#6bb7bf;fill-opacity:1;fill-rule:nonzero;stroke:none" d="M 1981.213 943.067 C 1981.213 943.067 1973.08 946.187 1967.507 937.84 C 1967.507 937.84 1976.853 936.44 1981.213 943.067"/>
  <path id="path544" style="fill:#6bb7bf;fill-opacity:1;fill-rule:nonzero;stroke:none" d="M 1995.72 1102.92 L 1997.347 1104.88 C 1997.6 1105.174 1998.08 1105 1998.093 1104.614 C 1999.093 1050.147 1993.147 1001.64 1987.907 972.974 C 1982.2 941.694 1976.133 923.147 1976.08 922.96 C 1976.133 923.147 1981.56 941.974 1987.253 973.16 C 1992.493 1001.88 1998.4 1039.374 1995.467 1102.174 C 1995.453 1102.44 1995.547 1102.707 1995.72 1102.92"/>
  <path id="path546" style="fill:#f99746;fill-opacity:1;fill-rule:nonzero;stroke:none" d="M 1976.333 915.547 C 1978.36 917.24 1986.12 924.467 1978.347 929.76 C 1978.347 929.76 1972.44 931.494 1970.587 926.934 C 1969.173 923.454 1968.84 919.6 1968.773 917.96 C 1968.747 917.534 1969.08 917.187 1969.507 917.16 C 1969.96 917.12 1970.56 917.027 1971.173 916.814 C 1971.907 916.547 1972.293 915.454 1973.28 915.227 C 1973.893 915.094 1974.533 914.974 1975.24 915.054 C 1975.653 915.094 1976.027 915.28 1976.333 915.547"/>
  <path id="path548" style="fill:#6bb7bf;fill-opacity:1;fill-rule:nonzero;stroke:none" d="M 1980.48 927.827 C 1980.48 927.827 1978.107 929.654 1978.907 932.667 L 1978.907 933.774 C 1978.907 933.774 1978.333 930.987 1975.493 930.08 C 1975.493 930.08 1978.067 930.414 1980.48 927.827"/>
  <path id="path550" style="fill:#6bb7bf;fill-opacity:1;fill-rule:nonzero;stroke:none" d="M 1984.667 933.534 C 1984.667 933.534 1993.253 934.974 1997.053 925.68 C 1997.053 925.68 1987.627 926.174 1984.667 933.534"/>
  <path id="path552" style="fill:#6bb7bf;fill-opacity:1;fill-rule:nonzero;stroke:none" d="M 2002.16 1093.08 L 2000.96 1095.32 C 2000.773 1095.667 2000.267 1095.587 2000.173 1095.214 C 1988.387 1042.027 1984.587 993.294 1984.027 964.174 C 1983.427 932.374 1985.68 913 1985.707 912.8 C 1985.68 913 1984.107 932.52 1984.707 964.227 C 1985.267 993.414 1986.92 1031.334 2002.28 1092.307 C 2002.333 1092.56 2002.293 1092.84 2002.16 1093.08"/>
  <path id="path554" style="fill:#f99746;fill-opacity:1;fill-rule:nonzero;stroke:none" d="M 1983.973 905.587 C 1982.32 907.654 1976.16 916.267 1984.827 919.92 C 1984.827 919.92 1990.96 920.454 1991.867 915.614 C 1992.573 911.92 1992.12 908.067 1991.867 906.454 C 1991.8 906.027 1991.413 905.747 1990.987 905.814 C 1990.547 905.867 1989.933 905.894 1989.293 905.8 C 1988.52 905.68 1987.92 904.694 1986.907 904.667 C 1986.28 904.654 1985.64 904.667 1984.947 904.894 C 1984.56 905.014 1984.227 905.267 1983.973 905.587"/>
  <path id="path556" style="fill:#6bb7bf;fill-opacity:1;fill-rule:nonzero;stroke:none" d="M 1982.36 918.44 C 1982.36 918.44 1985.053 919.76 1984.853 922.88 L 1985.08 923.96 C 1985.08 923.96 1985.08 921.12 1987.693 919.667 C 1987.693 919.667 1985.227 920.507 1982.36 918.44"/>
  <path id="path558" style="fill:#6bb7bf;fill-opacity:1;fill-rule:nonzero;stroke:none" d="M 1991.747 923.96 C 1991.747 923.96 1991.747 917.16 1997.613 915.027 C 1997.613 915.027 1998.907 920.707 1991.747 923.96"/>
  <path id="path560" style="fill:#ed9f4a;fill-opacity:1;fill-rule:nonzero;stroke:none" d="M 1977.987 913.027 C 1977.987 913.027 1978.16 907.84 1973.347 906.347 C 1973.347 906.347 1972.2 911.174 1977.987 913.027"/>
  <path id="path562" style="fill:#ed9f4a;fill-opacity:1;fill-rule:nonzero;stroke:none" d="M 1993.733 944.267 C 1993.907 944.414 1996.24 939.214 1991.507 935.027 C 1991.507 935.027 1989.52 940.6 1993.733 944.267"/>
  <path id="path564" style="fill:#6bb7bf;fill-opacity:1;fill-rule:nonzero;stroke:none" d="M 1997.053 943.854 C 1996.92 943.894 1997.013 941.267 1999.48 940.894 C 1999.48 940.894 1999.893 943.08 1997.053 943.854"/>
  <path id="path566" style="fill:#6bb7bf;fill-opacity:1;fill-rule:nonzero;stroke:none" d="M 1972.507 935.027 C 1972.507 935.027 1970.427 930.734 1963.773 931.48 C 1963.773 931.48 1964.773 936.094 1972.507 935.027"/>
  <path id="path568" style="fill:#f99746;fill-opacity:1;fill-rule:nonzero;stroke:none" d="M 2009.267 1113.8 L 1966.627 1113.8 C 1963.76 1113.8 1961.56 1111.267 1961.973 1108.427 L 1981.827 971.614 C 1982.013 970.334 1983.107 969.387 1984.387 969.387 L 1990.733 969.387 C 1992.107 969.387 1993.267 970.4 1993.467 971.76 L 2013.8 1108.56 C 2014.2 1111.32 2012.067 1113.8 2009.267 1113.8"/>
  <path id="path570" style="fill:#ffb278;fill-opacity:1;fill-rule:nonzero;stroke:none" d="M 1976.067 1109.667 L 1986.613 969.427 C 1985.48 969.574 1984.56 970.454 1984.387 971.614 L 1964.533 1108.427 C 1964.12 1111.267 1966.32 1113.8 1969.187 1113.8 L 1977.707 1113.8 C 1976.613 1112.814 1975.947 1111.32 1976.067 1109.667"/>
  <g transform="matrix(0.192756, 0, 0, -0.192756, 0, 2666.666748)" id="g572">
    <path id="path574" style="fill:#a2c5f9;fill-opacity:1;fill-rule:nonzero;stroke:none" d="m 16300,6441.7 h -46.5 l 0.4,3.66 14.1,123.96 c 0.5,3.94 3.8,6.99 7.9,6.99 l 1.4,-0.07 c 2.6,-0.35 5,-1.46 6.9,-3.19 2.2,-2 3.7,-4.77 4,-7.95 l 11.8,-123.4"/>
  </g>
  <g transform="matrix(0.192551, 0, 0, -0.192551, 0, 2666.666748)" id="g576">
    <path id="path578" style="fill:#afcdfb;fill-opacity:1;fill-rule:nonzero;stroke:none" d="m 16275.4,6476.75 -1.7,-0.07 11.6,99.65 c 0.5,3.94 3.9,6.99 7.9,6.99 l 1.5,-0.07 1.2,-1.18 c 2,-2.21 3.3,-5.12 3.3,-8.31 l 0.7,-71.6 c 0.1,-13.78 -10.8,-25.06 -24.5,-25.41"/>
  </g>
  <g transform="matrix(0.193107, 0, 0, -0.193107, 0, 2666.666748)" id="g580">
    <path id="path582" style="fill:#a2c5f9;fill-opacity:1;fill-rule:nonzero;stroke:none" d="M 16300,5879.51 V 1930.19 h -89.4 v 3949.32 h 89.4"/>
  </g>
  <g transform="matrix(0.192536, 0, 0, -0.192536, 0, 2666.666748)" id="g584">
    <path id="path586" style="fill:#afcdfb;fill-opacity:1;fill-rule:nonzero;stroke:none" d="M 16300,5896.92 V 1935.91 h -41.4 v 3961.01 h 41.4"/>
  </g>
  <g transform="matrix(0.194264, 0, 0, -0.194264, 0, 2666.666748)" id="g588">
    <path id="path590" style="fill:#a2c5f9;fill-opacity:1;fill-rule:nonzero;stroke:none" d="M 16300,2545.19 V 1506.47 h -283.1 v 1038.72 h 283.1"/>
  </g>
  <g transform="matrix(0.192901, 0, 0, -0.192901, 0, 2666.666748)" id="g592">
    <path id="path594" style="fill:#afcdfb;fill-opacity:1;fill-rule:nonzero;stroke:none" d="M 16300,2563.18 V 1517.12 h -170 v 1046.06 h 170"/>
  </g>
  <g transform="matrix(0.194421, 0, 0, -0.194421, 0, 2666.666748)" id="g596">
    <path id="path598" style="fill:#a2c5f9;fill-opacity:1;fill-rule:nonzero;stroke:none" d="m 16300,6327.36 c 0,-48.49 -72.8,-87.78 -162.6,-87.78 -6.9,0 -13.6,0.27 -20.2,0.68 -80.3,5.42 -142.3,42.32 -142.3,87.1 0,44.78 62,81.68 142.3,87.03 6.6,0.48 13.3,0.68 20.2,0.68 89.8,0 162.6,-39.29 162.6,-87.71"/>
  </g>
  <g transform="matrix(0.193417, 0, 0, -0.193417, 0, 2666.666748)" id="g600">
    <path id="path602" style="fill:#afcdfb;fill-opacity:1;fill-rule:nonzero;stroke:none" d="m 16300,6360.19 c 0,-39.29 -40.9,-73 -99.2,-87.54 -80.7,5.44 -143,42.53 -143,87.54 0,45.02 62.3,82.11 143,87.48 58.3,-14.47 99.2,-48.18 99.2,-87.48"/>
  </g>
  <g transform="matrix(0.195268, 0, 0, -0.195268, 0, 2666.666748)" id="g604">
    <path id="path606" style="fill:#afcdfb;fill-opacity:1;fill-rule:nonzero;stroke:none" d="m 16215.9,5737.42 h -281.7 l -99.3,478.25 h 465.1 l -84.1,-478.25"/>
  </g>
  <g transform="matrix(0.195569, 0, 0, -0.195569, 0, 2666.666748)" id="g608">
    <path id="path610" style="fill:#a2c5f9;fill-opacity:1;fill-rule:nonzero;stroke:none" d="m 16300,6242.1 v -45.82 h -514.6 v 45.82 h 514.6"/>
  </g>
  <g transform="matrix(0.193276, 0, 0, -0.193276, 0, 2666.666748)" id="g612">
    <path id="path614" style="fill:#afcdfb;fill-opacity:1;fill-rule:nonzero;stroke:none" d="m 16300,6316.15 v -46.36 h -327.3 v 46.36 h 327.3"/>
  </g>
  <g transform="matrix(0.193599, 0, 0, -0.193599, 0, 2666.666748)" id="g616">
    <path id="path618" style="fill:#a2c5f9;fill-opacity:1;fill-rule:nonzero;stroke:none" d="m 16118.4,2553.94 h 181.6 l -26.6,80.58 c -2.3,7.09 -9,11.98 -16.5,11.98 h -85.1 c -9.2,0 -17.5,-5.58 -21,-14.12 l -32.4,-78.44"/>
  </g>
  <g transform="matrix(0.194855, 0, 0, -0.194855, 0, 2666.666748)" id="g620">
    <path id="path622" style="fill:#c7dcf9;fill-opacity:1;fill-rule:nonzero;stroke:none" d="m 15901.9,6205.47 h 398.1 l -77.7,-430.75 h -228.6 l -91.8,430.75"/>
  </g>
  <g transform="matrix(0.191749, 0, 0, -0.191749, 0, 2666.666748)" id="g624">
    <path id="path626" style="fill:#c7dcf9;fill-opacity:1;fill-rule:nonzero;stroke:none" d="m 16208.4,6410.26 c 0,0 30.8,67.38 91.6,65.29 0,0 -38.7,-34.42 -35.1,-65.29 3.5,-30.81 -56.5,0 -56.5,0"/>
  </g>
  <g transform="matrix(0.195175, 0, 0, -0.195175, 0, 2666.666748)" id="g628">
    <path id="path630" style="fill:#a2c5f9;fill-opacity:1;fill-rule:nonzero;stroke:none" d="m 16300,6254.7 h -449.7 l 36.8,52.4 h 377.9 l 35,-52.4"/>
  </g>
  <g transform="matrix(0.193849, 0, 0, -0.193849, 0, 2666.666748)" id="g632">
    <path id="path634" style="fill:#afcdfb;fill-opacity:1;fill-rule:nonzero;stroke:none" d="m 16300,6297.49 h -341.3 l 37.1,52.76 h 269 l 35.2,-52.76"/>
  </g>
  <g transform="matrix(0.191819, 0, 0, -0.191819, 0, 2666.666748)" id="g636">
    <path id="path638" style="fill:#d2e4f9;fill-opacity:1;fill-rule:nonzero;stroke:none" d="m 16180.3,6288.42 h 92.7 l 27,-408.65 h -27 l -92.7,408.65"/>
  </g>
  <g transform="matrix(0.181568, 0, 0, -0.181568, 0, 2666.666748)" id="g644">
    <path id="path646" style="fill:#afcdfb;fill-opacity:1;fill-rule:nonzero;stroke:none" d="m 16300,12737.7 -8814.03,-317.6 -21.74,603.3 8814.07,317.6 21.7,-603.3"/>
  </g>
  <g transform="matrix(0.134639, 0, 0, -0.134639, 0, 2666.666748)" id="g648">
    <path id="path650" style="fill:#afcdfb;fill-opacity:1;fill-rule:nonzero;stroke:none" d="m 15524.2,15550.6 h -3504.7 v 749.4 h 3504.7 v -749.4"/>
  </g>
  <g transform="matrix(0.166427, 0, 0, -0.166427, 0, 2666.666748)" id="g652">
    <path id="path654" style="fill:#afcdfb;fill-opacity:1;fill-rule:nonzero;stroke:none" d="m 16300,12580.4 h -2835.3 v 606.3 H 16300 v -606.3"/>
  </g>
  <path id="path656" style="fill:#afcdfb;fill-opacity:1;fill-rule:nonzero;stroke:none" d="M 2090.16 1459.947 L 1618.293 1459.947 L 1618.293 1359.04 L 2090.16 1359.04 L 2090.16 1459.947"/>
  <g transform="matrix(0.166427, 0, 0, -0.166427, 0, 2666.666748)" id="g658">
    <path id="path660" style="fill:#afcdfb;fill-opacity:1;fill-rule:nonzero;stroke:none" d="M 16300,7250.78 H 13464.7 V 7857.1 H 16300 v -606.32"/>
  </g>
</svg>